<svg width="592" height="206" viewBox="0 0 592 206" fill="none" xmlns="http://www.w3.org/2000/svg">
<g clip-path="url(#clip0_35_52)">
<path d="M80.1158 0C79.2004 0 78.3225 0.363556 77.6753 1.01065C77.028 1.65774 76.6644 2.53536 76.6644 3.45049C76.6644 4.36561 77.028 5.24326 77.6753 5.89035C78.3225 6.53744 79.2004 6.90097 80.1158 6.90097H150.129C151.045 6.90097 151.922 6.53744 152.57 5.89035C153.217 5.24326 153.581 4.36561 153.581 3.45049C153.581 2.53536 153.217 1.65774 152.57 1.01065C151.922 0.363556 151.045 0 150.129 0H80.1158Z" fill="#3F3D56"/>
<path d="M80.1158 20.3291C79.2014 20.3306 78.3249 20.6948 77.6789 21.3417C77.0328 21.9887 76.67 22.8654 76.67 23.7796C76.67 24.6937 77.0328 25.5705 77.6789 26.2175C78.3249 26.8644 79.2014 27.2286 80.1158 27.2301H150.129C151.044 27.2286 151.92 26.8644 152.566 26.2175C153.212 25.5705 153.575 24.6937 153.575 23.7796C153.575 22.8654 153.212 21.9887 152.566 21.3417C151.92 20.6948 151.044 20.3306 150.129 20.3291H80.1158Z" fill="#3F3D56"/>
<path d="M115.123 84.8029C110.826 84.8029 106.626 83.5291 103.054 81.1427C99.4812 78.7562 96.6967 75.3643 95.0524 71.3958C93.4081 67.4273 92.9778 63.0605 93.816 58.8475C94.6541 54.6345 96.7231 50.7647 99.7612 47.7272C102.799 44.6898 106.67 42.6212 110.884 41.783C115.098 40.9449 119.466 41.3749 123.436 43.0186C127.406 44.6623 130.799 47.4458 133.186 51.0173C135.573 54.5888 136.847 58.7877 136.847 63.0832V63.0832C136.841 68.8415 134.55 74.3621 130.477 78.4339C126.405 82.5056 120.883 84.7961 115.123 84.8029V84.8029Z" fill="#CCCCCC"/>
<path d="M441.872 0C440.957 0 440.079 0.363556 439.431 1.01065C438.784 1.65774 438.42 2.53536 438.42 3.45049C438.42 4.36561 438.784 5.24326 439.431 5.89035C440.079 6.53744 440.957 6.90097 441.872 6.90097H511.885C512.801 6.90097 513.679 6.53744 514.326 5.89035C514.973 5.24326 515.337 4.36561 515.337 3.45049C515.337 2.53536 514.973 1.65774 514.326 1.01065C513.679 0.363556 512.801 0 511.885 0H441.872Z" fill="#3F3D56"/>
<path d="M441.872 20.3291C440.957 20.3306 440.081 20.6948 439.435 21.3417C438.789 21.9887 438.426 22.8654 438.426 23.7796C438.426 24.6937 438.789 25.5705 439.435 26.2175C440.081 26.8644 440.957 27.2286 441.872 27.2301H511.885C512.8 27.2286 513.676 26.8644 514.322 26.2175C514.968 25.5705 515.331 24.6937 515.331 23.7796C515.331 22.8654 514.968 21.9887 514.322 21.3417C513.676 20.6948 512.8 20.3306 511.885 20.3291H441.872Z" fill="#3F3D56"/>
<path d="M476.879 84.8029C472.582 84.8029 468.382 83.5291 464.81 81.1427C461.237 78.7562 458.453 75.3643 456.808 71.3958C455.164 67.4273 454.734 63.0605 455.572 58.8475C456.41 54.6345 458.479 50.7647 461.517 47.7272C464.555 44.6898 468.426 42.6212 472.64 41.783C476.854 40.9449 481.222 41.3749 485.192 43.0186C489.162 44.6623 492.555 47.4458 494.942 51.0173C497.329 54.5888 498.603 58.7877 498.604 63.0832C498.597 68.8415 496.306 74.3621 492.234 78.4339C488.161 82.5056 482.639 84.7961 476.879 84.8029Z" fill="#CCCCCC"/>
<path d="M209.99 135.17C211.542 131.899 204.351 125.242 193.93 120.3C183.508 115.359 173.802 114.004 172.25 117.275C170.698 120.546 177.889 127.203 188.31 132.145C198.732 137.086 208.438 138.441 209.99 135.17Z" fill="#2F2E41"/>
<path d="M296 168.858C298.776 166.534 295.024 157.483 287.62 148.641C280.215 139.8 271.962 134.517 269.186 136.84C266.409 139.164 270.161 148.216 277.566 157.057C284.97 165.898 293.224 171.182 296 168.858Z" fill="#2F2E41"/>
<path d="M238.166 187.357C261.235 187.357 279.936 168.661 279.936 145.599C279.936 122.536 261.235 103.84 238.166 103.84C215.098 103.84 196.397 122.536 196.397 145.599C196.397 168.661 215.098 187.357 238.166 187.357Z" fill="#2F2E41"/>
<path d="M255.846 178.371H243.156V201.1H255.846V178.371Z" fill="#2F2E41"/>
<path d="M230.467 178.371H217.777V201.1H230.467V178.371Z" fill="#2F2E41"/>
<path d="M245.271 205.328C251.111 205.328 255.846 203.554 255.846 201.364C255.846 199.175 251.111 197.4 245.271 197.4C239.431 197.4 234.697 199.175 234.697 201.364C234.697 203.554 239.431 205.328 245.271 205.328Z" fill="#2F2E41"/>
<path d="M219.892 204.8C225.732 204.8 230.467 203.025 230.467 200.835C230.467 198.646 225.732 196.871 219.892 196.871C214.052 196.871 209.318 198.646 209.318 200.835C209.318 203.025 214.052 204.8 219.892 204.8Z" fill="#2F2E41"/>
<path d="M225.051 93.1073C228.781 78.0911 245.244 69.2543 261.823 73.3699C278.402 77.4855 288.818 92.995 285.089 108.011C281.359 123.027 268.985 123.076 252.406 118.96C235.827 114.845 221.321 108.124 225.051 93.1073Z" fill="#FB1B8A"/>
<path d="M231.922 150.709C239.613 150.709 245.848 144.476 245.848 136.787C245.848 129.098 239.613 122.865 231.922 122.865C224.231 122.865 217.996 129.098 217.996 136.787C217.996 144.476 224.231 150.709 231.922 150.709Z" fill="white"/>
<path d="M226.198 136.438C228.762 136.438 230.84 134.36 230.84 131.797C230.84 129.234 228.762 127.156 226.198 127.156C223.634 127.156 221.556 129.234 221.556 131.797C221.556 134.36 223.634 136.438 226.198 136.438Z" fill="#3F3D56"/>
<path d="M240.658 165.793C241.096 168.214 240.556 170.71 239.155 172.733C237.754 174.755 235.606 176.139 233.185 176.58C230.764 177.02 228.267 176.482 226.243 175.083C224.218 173.683 222.833 171.538 222.39 169.118V169.118L222.387 169.1C221.473 164.056 225.374 162.271 230.42 161.358C235.465 160.445 239.744 160.749 240.658 165.793Z" fill="white"/>
<path d="M403.69 132.145C414.111 127.203 421.302 120.546 419.75 117.275C418.198 114.004 408.492 115.359 398.07 120.3C387.649 125.242 380.458 131.899 382.01 135.17C383.562 138.44 393.268 137.086 403.69 132.145Z" fill="#2F2E41"/>
<path d="M314.434 157.057C321.839 148.216 325.591 139.164 322.814 136.84C320.038 134.517 311.785 139.8 304.38 148.641C296.976 157.483 293.224 166.534 296 168.858C298.776 171.182 307.03 165.898 314.434 157.057Z" fill="#2F2E41"/>
<path d="M353.834 187.357C376.902 187.357 395.603 168.661 395.603 145.599C395.603 122.536 376.902 103.84 353.834 103.84C330.765 103.84 312.064 122.536 312.064 145.599C312.064 168.661 330.765 187.357 353.834 187.357Z" fill="#2F2E41"/>
<path d="M348.844 178.371H336.154V201.1H348.844V178.371Z" fill="#2F2E41"/>
<path d="M374.223 178.371H361.533V201.1H374.223V178.371Z" fill="#2F2E41"/>
<path d="M346.729 205.328C352.569 205.328 357.303 203.554 357.303 201.364C357.303 199.175 352.569 197.4 346.729 197.4C340.889 197.4 336.154 199.175 336.154 201.364C336.154 203.554 340.889 205.328 346.729 205.328Z" fill="#2F2E41"/>
<path d="M372.108 204.8C377.948 204.8 382.682 203.025 382.682 200.835C382.682 198.646 377.948 196.871 372.108 196.871C366.268 196.871 361.533 198.646 361.533 200.835C361.533 203.025 366.268 204.8 372.108 204.8Z" fill="#2F2E41"/>
<path d="M366.949 93.1073C363.219 78.0911 346.756 69.2543 330.177 73.3699C313.598 77.4855 303.182 92.9949 306.911 108.011C310.641 123.027 323.015 123.076 339.594 118.96C356.173 114.845 370.679 108.124 366.949 93.1073Z" fill="#217BF4"/>
<path d="M360.078 150.709C367.769 150.709 374.004 144.476 374.004 136.787C374.004 129.098 367.769 122.865 360.078 122.865C352.387 122.865 346.152 129.098 346.152 136.787C346.152 144.476 352.387 150.709 360.078 150.709Z" fill="white"/>
<path d="M365.802 136.438C368.366 136.438 370.444 134.36 370.444 131.797C370.444 129.234 368.366 127.156 365.802 127.156C363.238 127.156 361.16 129.234 361.16 131.797C361.16 134.36 363.238 136.438 365.802 136.438Z" fill="#3F3D56"/>
<path d="M351.342 165.793C350.904 168.214 351.444 170.71 352.845 172.733C354.247 174.755 356.394 176.139 358.815 176.58C361.236 177.02 363.733 176.482 365.757 175.083C367.782 173.683 369.167 171.538 369.61 169.118V169.118L369.613 169.1C370.527 164.056 366.626 162.271 361.58 161.358C356.535 160.445 352.256 160.749 351.342 165.793Z" fill="white"/>
<path d="M590.915 206H1.085C0.797792 205.999 0.522622 205.884 0.319828 205.681C0.117033 205.478 0.00317383 205.202 0.00317383 204.915C0.00317383 204.628 0.117033 204.353 0.319828 204.149C0.522622 203.946 0.797792 203.831 1.085 203.831H590.915C591.203 203.831 591.479 203.945 591.682 204.148C591.886 204.352 592 204.628 592 204.915C592 205.203 591.886 205.479 591.682 205.682C591.479 205.886 591.203 206 590.915 206V206Z" fill="#3F3D56"/>
</g>
<defs>
<clipPath id="clip0_35_52">
<rect width="592" height="206" fill="white"/>
</clipPath>
</defs>
</svg>
