<svg width="428" height="408" viewBox="0 0 428 408" fill="none" xmlns="http://www.w3.org/2000/svg">
<path d="M191.244 4.08857C170.037 13.0151 156.829 32.7277 156.829 55.4159C156.829 69.3635 160.177 79.9637 173.385 107.673C188.453 139.102 192.36 151.748 193.476 171.646C194.592 190.057 191.244 208.096 184.733 220.928C182.687 225.019 181.57 228.367 182.314 228.367C183.245 228.367 192.546 221.114 202.963 212.373C241.471 180.201 268.817 141.333 277.932 105.999C291.884 51.3246 263.608 2.60082 216.357 0.183231C204.638 -0.374674 200.545 0.183232 191.244 4.08857Z" fill="#FB1B8A"/>
<path d="M120.554 109.161C110.88 113.438 101.765 124.038 98.9748 133.894C91.1617 162.72 113.299 195.636 154.411 216.836C175.059 227.437 180.082 228.924 174.129 222.229C161.48 208.654 158.317 189.313 163.34 158.07C167.99 129.245 163.712 116.785 146.784 109.161C137.11 104.883 130.041 104.883 120.554 109.161Z" fill="#EBF228"/>
<path d="M280.536 162.162C270.677 166.439 263.236 174.25 253.19 190.615C236.82 217.58 221.938 230.04 200.731 234.875L191.802 236.921L208.172 241.942C260.631 258.307 303.789 249.753 322.578 219.812C327.601 211.629 329.647 198.426 327.601 188.755C323.136 167.927 298.767 154.165 280.536 162.162Z" fill="#0099DC"/>
<path d="M25.7762 339.417C25.4052 339.417 24.7958 339.391 23.9478 339.338C23.0999 339.285 22.2254 339.232 21.3245 339.179C20.4235 339.126 19.5491 339.073 18.7012 339.02C17.8532 338.967 17.2437 338.94 16.8728 338.94H12.1826C11.8116 338.94 11.2021 338.967 10.3542 339.02C9.50626 339.073 8.63181 339.126 7.73087 339.179C6.82993 339.232 5.95549 339.285 5.10754 339.338C4.2596 339.391 3.65014 339.417 3.27916 339.417L3.12017 339.099L3.35865 336.079L3.75613 335.762C4.39209 335.762 5.13404 335.735 5.98198 335.682C6.82993 335.576 7.49238 335.364 7.96935 335.046C8.39333 334.728 8.7908 334.225 9.16177 333.536C9.53275 332.848 9.79773 331.815 9.95672 330.437C9.95672 330.066 9.95672 329.642 9.95672 329.166C10.0097 328.636 10.0362 328 10.0362 327.258C10.0892 326.517 10.1157 325.616 10.1157 324.556C10.1157 323.497 10.1157 322.172 10.1157 320.583V303.099C10.1157 302.04 10.1157 300.848 10.1157 299.523C10.1157 298.146 10.0627 296.795 9.95672 295.47C9.85073 294.093 9.58575 293.086 9.16177 292.45C8.7908 291.762 8.39333 291.258 7.96935 290.94C7.49238 290.517 6.98892 290.278 6.45895 290.225C5.98198 290.172 5.08104 290.146 3.75613 290.146L3.35865 289.828L3.12017 286.808L3.27916 286.49C3.65014 286.49 4.1271 286.517 4.71007 286.57C5.34603 286.622 5.98199 286.675 6.61794 286.728C7.3069 286.781 7.99585 286.834 8.68481 286.887C9.37376 286.94 10.0097 286.967 10.5927 286.967H16.6343C17.2172 286.967 17.8797 286.967 18.6217 286.967C19.3636 286.914 20.1056 286.887 20.8475 286.887C21.6425 286.887 22.3579 286.887 22.9939 286.887C23.6298 286.834 24.1598 286.808 24.5838 286.808C28.1345 286.808 31.1288 287.179 33.5667 287.921C36.0575 288.609 38.0714 289.589 39.6083 290.861C41.1452 292.132 42.2581 293.669 42.9471 295.47C43.689 297.219 44.06 299.152 44.06 301.272C44.06 304.821 43.424 307.735 42.1521 310.013C40.8802 312.291 39.2373 314.093 37.2234 315.417C35.2626 316.742 33.0367 317.669 30.5459 318.199C28.108 318.675 25.7232 318.914 23.3913 318.914H18.9396C18.9396 319.973 18.9396 321.086 18.9396 322.252C18.9396 323.417 18.9396 324.556 18.9396 325.669C18.9926 326.728 19.0191 327.682 19.0191 328.53C19.0721 329.377 19.1251 330.013 19.1781 330.437C19.2841 331.973 19.5491 333.06 19.9731 333.695C20.397 334.278 20.768 334.702 21.086 334.967C21.563 335.391 22.0399 335.629 22.5169 335.682C23.0469 335.735 24.0008 335.762 25.3787 335.762L25.6967 336.079L25.9352 339.099L25.7762 339.417ZM22.9939 313.033C27.4456 313.033 30.6254 312.026 32.5332 310.013C34.4411 308 35.3951 305.219 35.3951 301.669C35.3951 298.808 34.2821 296.689 32.0563 295.311C29.8834 293.881 26.8891 293.166 23.0734 293.166H19.3371C19.1781 295.497 19.0721 297.245 19.0191 298.411C18.9661 299.523 18.9396 300.53 18.9396 301.43V310.093C18.9396 310.781 18.9661 311.338 19.0191 311.762C19.0721 312.132 19.2046 312.424 19.4166 312.636C19.6286 312.795 19.9201 312.901 20.291 312.954C20.715 313.007 21.2715 313.033 21.9604 313.033H22.9939Z" fill="#0099DC"/>
<path d="M61.8513 310.808C62.3813 309.801 62.9642 308.742 63.6002 307.629C64.2892 306.517 65.0576 305.483 65.9055 304.53C66.7535 303.576 67.7074 302.781 68.7674 302.146C69.8803 301.51 71.1257 301.192 72.5036 301.192C72.9276 301.192 73.431 301.245 74.014 301.351C74.65 301.404 75.2594 301.51 75.8424 301.669C76.4784 301.828 77.0878 302.013 77.6708 302.225C78.2537 302.437 78.7042 302.675 79.0222 302.94L79.5787 303.417L78.6247 312H75.2064C75.0474 311.364 74.6235 310.729 73.9345 310.093C73.2986 309.404 72.2916 309.06 70.9137 309.06C69.6948 309.06 68.5819 309.377 67.5749 310.013C66.568 310.596 65.6936 311.338 64.9516 312.238C64.2097 313.139 63.6267 314.119 63.2027 315.179C62.7788 316.185 62.5668 317.113 62.5668 317.96V323.444C62.5668 325.457 62.5668 326.967 62.5668 327.974C62.6198 328.98 62.6728 329.854 62.7257 330.596C62.8317 331.762 62.9642 332.715 63.1232 333.457C63.3352 334.146 63.6532 334.675 64.0772 335.046C64.2891 335.258 64.6071 335.444 65.0311 335.603C65.5081 335.709 65.985 335.788 66.462 335.841C66.939 335.894 67.3894 335.921 67.8134 335.921C68.2904 335.921 68.6614 335.921 68.9263 335.921L69.3238 336.318L69.4828 338.94L69.3238 339.258C69.0058 339.258 68.4759 339.232 67.7339 339.179C66.992 339.126 66.197 339.073 65.3491 339.02C64.5011 339.02 63.7062 338.993 62.9642 338.94C62.2223 338.94 61.6923 338.94 61.3743 338.94H56.2867C55.9157 338.94 55.3327 338.94 54.5378 338.94C53.7958 338.993 53.0009 339.02 52.1529 339.02C51.305 339.073 50.4835 339.126 49.6886 339.179C48.9466 339.232 48.3902 339.258 48.0192 339.258L47.9397 338.94L48.0987 336.238L48.3372 335.921C49.2381 335.921 50.0861 335.894 50.881 335.841C51.676 335.735 52.2854 335.47 52.7094 335.046C53.1334 334.675 53.4249 334.199 53.5838 333.616C53.7958 333.033 53.9548 332.026 54.0608 330.596C54.1138 329.96 54.1403 329.113 54.1403 328.053C54.1403 326.993 54.1403 325.51 54.1403 323.603V317.801C54.1403 316.689 54.1403 315.762 54.1403 315.02C54.1403 314.225 54.1138 313.536 54.0608 312.954C54.0608 312.371 54.0343 311.841 53.9813 311.364C53.9813 310.887 53.9548 310.384 53.9018 309.854C53.7958 309.324 53.6368 308.821 53.4249 308.344C53.2129 307.868 53.0274 307.55 52.8684 307.391C52.3384 306.702 51.676 306.305 50.881 306.199C50.0861 306.093 49.2646 306.04 48.4167 306.04L48.0987 305.722V303.02L48.4167 302.781H49.8476C51.0135 302.781 52.5239 302.781 54.3788 302.781C56.2337 302.728 57.8501 302.623 59.228 302.464L62.0103 302.066L62.4873 303.576C62.1693 304.583 61.9308 305.722 61.7718 306.993C61.6658 308.265 61.6128 309.51 61.6128 310.728L61.8513 310.808Z" fill="#0099DC"/>
<path d="M102.949 339.258C102.578 339.258 102.021 339.232 101.279 339.179C100.538 339.126 99.7426 339.073 98.8946 339.02C98.0467 339.02 97.2517 338.993 96.5098 338.94C95.7678 338.94 95.2114 338.94 94.8404 338.94H90.5477C90.1767 338.94 89.5937 338.94 88.7988 338.94C88.0568 338.993 87.2619 339.02 86.414 339.02C85.619 339.073 84.8241 339.126 84.0291 339.179C83.2872 339.232 82.7307 339.258 82.3597 339.258L82.2802 338.94L82.4392 336.238L82.6777 335.921C83.4726 335.921 84.2941 335.894 85.142 335.841C85.99 335.735 86.6259 335.47 87.0499 335.046C87.4209 334.675 87.6859 334.199 87.8449 333.616C88.0038 333.033 88.1363 332.212 88.2423 331.152C88.2953 330.781 88.3218 330.411 88.3218 330.04C88.3748 329.669 88.4013 329.271 88.4013 328.848C88.4543 328.424 88.4808 327.921 88.4808 327.338C88.4808 326.755 88.4808 326.04 88.4808 325.192V316.212C88.4808 315.205 88.4808 314.411 88.4808 313.828C88.4808 313.192 88.4543 312.662 88.4013 312.238C88.4013 311.815 88.3748 311.444 88.3218 311.126C88.3218 310.755 88.2953 310.331 88.2423 309.854C88.1363 309.324 87.9773 308.821 87.7654 308.344C87.5534 307.868 87.3679 307.55 87.2089 307.391C86.6789 306.702 86.0165 306.305 85.2215 306.199C84.4266 306.093 83.6051 306.04 82.7572 306.04L82.4392 305.722V303.02L82.7572 302.781H86.8114C88.0304 302.781 89.3288 302.781 90.7067 302.781C92.0846 302.728 93.3035 302.623 94.3634 302.464L97.1457 302.066L97.6227 303.576C97.5167 303.788 97.4107 304.132 97.3047 304.609C97.2517 305.033 97.1987 305.51 97.1457 306.04C97.1457 306.517 97.1192 307.02 97.0663 307.55C97.0663 308.027 97.0663 308.424 97.0663 308.742C97.0663 309.166 97.0398 309.563 96.9868 309.934C96.9868 310.252 96.9868 310.649 96.9868 311.126C96.9868 311.55 96.9603 312.106 96.9073 312.795C96.9073 313.483 96.9073 314.331 96.9073 315.338V324.238C96.9073 325.298 96.9073 326.172 96.9073 326.861C96.9603 327.497 96.9868 328.053 96.9868 328.53C97.0398 329.007 97.0663 329.457 97.0663 329.881C97.1192 330.252 97.1722 330.675 97.2252 331.152C97.3312 332.265 97.4372 333.113 97.5432 333.695C97.7022 334.225 97.9937 334.675 98.4177 335.046C98.8416 335.47 99.4246 335.735 100.167 335.841C100.961 335.894 101.756 335.921 102.551 335.921L102.949 336.318L103.108 338.94L102.949 339.258ZM86.8114 290.225C86.8114 289.589 86.9439 288.954 87.2089 288.318C87.4739 287.682 87.8449 287.126 88.3218 286.649C88.7988 286.119 89.3288 285.722 89.9117 285.457C90.5477 285.139 91.2101 284.98 91.8991 284.98C93.224 284.98 94.4164 285.536 95.4764 286.649C96.5893 287.709 97.1457 288.901 97.1457 290.225C97.1457 290.914 96.9868 291.576 96.6688 292.212C96.4038 292.795 96.0063 293.325 95.4764 293.801C94.9994 294.278 94.4429 294.649 93.807 294.914C93.171 295.179 92.535 295.311 91.8991 295.311C90.5212 295.311 89.3288 294.808 88.3218 293.801C87.3149 292.795 86.8114 291.603 86.8114 290.225Z" fill="#0099DC"/>
<path d="M121.798 309.298C123.017 306.967 124.686 305.033 126.806 303.497C128.926 301.96 131.417 301.192 134.279 301.192C135.921 301.192 137.538 301.404 139.128 301.828C140.718 302.252 142.149 302.914 143.42 303.815C144.745 304.715 145.832 305.881 146.68 307.311C147.581 308.689 148.164 310.331 148.429 312.238C148.588 313.616 148.667 315.073 148.667 316.609C148.72 318.146 148.747 319.682 148.747 321.219C148.8 323.02 148.826 324.689 148.826 326.225C148.826 327.709 148.826 329.351 148.826 331.152C148.826 332.371 148.959 333.298 149.224 333.934C149.542 334.517 149.913 334.914 150.336 335.126C150.919 335.444 151.529 335.656 152.165 335.762C152.854 335.868 153.622 335.921 154.47 335.921L154.709 336.238L154.868 338.94L154.709 339.258C153.596 339.152 152.35 339.073 150.972 339.02C149.648 338.967 148.349 338.94 147.077 338.94C145.805 338.94 144.533 338.94 143.261 338.94C141.99 338.993 140.797 339.073 139.684 339.179L139.128 337.589C139.287 336.901 139.419 335.868 139.525 334.49C139.684 333.113 139.79 332 139.843 331.152C139.949 329.139 140.029 327.258 140.082 325.51C140.135 323.762 140.161 322.199 140.161 320.821C140.161 319.603 140.135 318.278 140.082 316.848C140.029 315.417 139.843 314.172 139.525 313.113C139.101 311.417 138.227 310.172 136.902 309.377C135.63 308.53 134.146 308.106 132.45 308.106C130.86 308.106 129.403 308.397 128.078 308.98C126.753 309.563 125.614 310.278 124.66 311.126C123.759 311.921 123.043 312.768 122.513 313.669C121.983 314.57 121.718 315.364 121.718 316.053V324.238C121.718 325.298 121.718 326.172 121.718 326.861C121.718 327.497 121.718 328.053 121.718 328.53C121.771 329.007 121.798 329.457 121.798 329.881C121.851 330.252 121.904 330.675 121.957 331.152C122.063 332.265 122.275 333.113 122.593 333.695C122.964 334.225 123.361 334.675 123.785 335.046C124.209 335.47 124.713 335.735 125.296 335.841C125.879 335.894 126.568 335.921 127.362 335.921L127.76 336.318L127.919 338.94L127.76 339.258C127.389 339.258 126.833 339.232 126.091 339.179C125.349 339.126 124.554 339.073 123.706 339.02C122.858 339.02 122.063 338.993 121.321 338.94C120.579 338.94 120.022 338.94 119.651 338.94H115.279C114.908 338.94 114.325 338.94 113.53 338.94C112.788 338.993 111.993 339.02 111.146 339.02C110.351 339.073 109.556 339.126 108.761 339.179C108.019 339.232 107.462 339.258 107.091 339.258L107.012 338.94L107.171 336.238L107.409 335.921C108.257 335.921 108.999 335.894 109.635 335.841C110.324 335.735 110.881 335.47 111.305 335.046C111.676 334.675 112.02 334.199 112.338 333.616C112.656 333.033 112.868 332.212 112.974 331.152C113.027 330.781 113.053 330.411 113.053 330.04C113.106 329.669 113.133 329.271 113.133 328.848C113.186 328.424 113.212 327.921 113.212 327.338C113.212 326.755 113.212 326.04 113.212 325.192V317.007C113.212 316 113.212 315.152 113.212 314.464C113.212 313.775 113.186 313.166 113.133 312.636C113.133 312.106 113.106 311.629 113.053 311.205C113.053 310.781 113.027 310.331 112.974 309.854C112.868 309.324 112.709 308.821 112.497 308.344C112.285 307.868 112.099 307.55 111.94 307.391C111.411 306.702 110.748 306.305 109.953 306.199C109.158 306.093 108.337 306.04 107.489 306.04L107.171 305.722V303.02L107.489 302.781H111.543C112.762 302.781 114.06 302.781 115.438 302.781C116.869 302.728 118.115 302.623 119.175 302.464L121.957 302.066L122.434 303.576C122.01 304.159 121.745 304.98 121.639 306.04C121.586 307.046 121.559 308.079 121.559 309.139L121.798 309.298Z" fill="#0099DC"/>
<path d="M176.544 307.152H167.799C167.799 310.225 167.773 313.086 167.72 315.735C167.72 318.331 167.72 320.609 167.72 322.57C167.72 324.477 167.693 326.04 167.64 327.258C167.64 328.477 167.64 329.219 167.64 329.483C167.64 331.55 168.038 332.927 168.833 333.616C169.628 334.305 170.555 334.649 171.615 334.649C172.41 334.649 173.311 334.57 174.318 334.411C175.325 334.252 176.173 334.04 176.862 333.775L177.339 334.649L176.544 337.271C175.113 338.066 173.629 338.675 172.092 339.099C170.608 339.576 169.23 339.815 167.958 339.815C164.725 339.815 162.42 339.073 161.042 337.589C159.664 336.106 158.975 334.199 158.975 331.868C158.975 331.391 159.002 330.464 159.055 329.086C159.108 327.656 159.161 325.881 159.214 323.762C159.267 321.589 159.32 319.099 159.373 316.291C159.426 313.483 159.452 310.437 159.452 307.152H155.319L155.001 306.755V303.258L155.319 302.94L159.452 301.828C159.452 300.132 159.399 298.411 159.293 296.662C159.24 294.861 159.161 293.113 159.055 291.417L159.611 290.94L160.724 290.861C161.095 290.861 161.599 290.834 162.235 290.781C162.924 290.728 163.639 290.676 164.381 290.623C165.123 290.517 165.812 290.411 166.448 290.305C167.137 290.199 167.64 290.093 167.958 289.987L168.674 290.305C168.409 291.629 168.197 293.404 168.038 295.629C167.879 297.801 167.799 299.868 167.799 301.828L176.544 301.351L176.941 301.669V306.755L176.544 307.152Z" fill="#0099DC"/>
<path d="M204.678 286.093C208.759 286.093 212.389 286.808 215.569 288.238C218.749 289.669 221.425 291.603 223.598 294.04C225.771 296.477 227.413 299.311 228.526 302.543C229.692 305.775 230.275 309.166 230.275 312.715C230.275 316.106 229.772 319.391 228.765 322.57C227.758 325.695 226.248 328.503 224.234 330.993C222.273 333.43 219.835 335.444 216.92 337.033C214.005 338.623 210.64 339.523 206.824 339.735C209.527 339.788 211.912 340.106 213.979 340.689C216.046 341.325 217.98 341.987 219.782 342.676C221.637 343.417 223.465 344.079 225.267 344.662C227.069 345.245 229.003 345.536 231.07 345.536C231.812 345.536 232.687 345.43 233.694 345.219C234.754 345.06 235.866 344.636 237.032 343.947L237.271 344.106L238.384 346.331L238.304 346.649C237.085 348.185 235.601 349.483 233.853 350.543C232.104 351.603 230.143 352.132 227.97 352.132C226.168 352.132 224.313 351.709 222.405 350.861C220.55 350.066 218.59 349.166 216.523 348.159C214.456 347.205 212.309 346.305 210.084 345.457C207.858 344.662 205.526 344.265 203.088 344.265C201.021 344.265 199.007 344.609 197.046 345.298C195.139 345.987 193.734 346.728 192.833 347.523L192.595 347.444L191.72 344.344L191.8 344.106C192.966 343.311 194.529 342.437 196.49 341.483C198.451 340.53 200.571 339.974 202.85 339.815C198.928 339.762 195.483 339.02 192.515 337.589C189.547 336.159 187.057 334.252 185.043 331.868C183.082 329.43 181.598 326.623 180.591 323.444C179.584 320.265 179.081 316.901 179.081 313.351C179.081 309.589 179.664 306.066 180.83 302.781C181.995 299.444 183.665 296.556 185.838 294.119C188.011 291.629 190.687 289.669 193.867 288.238C197.047 286.808 200.65 286.093 204.678 286.093ZM204.598 333.219C207.195 333.219 209.501 332.689 211.515 331.629C213.581 330.517 215.304 329.06 216.682 327.258C218.06 325.404 219.12 323.258 219.861 320.821C220.603 318.331 220.974 315.682 220.974 312.874C220.974 310.013 220.577 307.364 219.782 304.927C219.04 302.437 217.927 300.291 216.443 298.49C215.012 296.689 213.263 295.285 211.197 294.278C209.13 293.219 206.798 292.689 204.201 292.689C201.657 292.689 199.405 293.192 197.444 294.199C195.483 295.205 193.84 296.609 192.515 298.411C191.19 300.212 190.183 302.358 189.494 304.848C188.806 307.285 188.461 309.934 188.461 312.795C188.461 315.921 188.859 318.755 189.653 321.298C190.448 323.788 191.561 325.934 192.992 327.735C194.423 329.483 196.119 330.834 198.08 331.788C200.041 332.742 202.214 333.219 204.598 333.219Z" fill="white"/>
<path d="M264.085 332.106C262.654 334.384 260.879 336.238 258.759 337.669C256.639 339.099 253.962 339.815 250.73 339.815C249.246 339.815 247.788 339.629 246.357 339.258C244.98 338.887 243.708 338.305 242.542 337.51C241.429 336.715 240.448 335.682 239.6 334.411C238.752 333.086 238.143 331.497 237.772 329.642C237.666 329.166 237.56 328.636 237.454 328.053C237.401 327.47 237.348 326.728 237.295 325.828C237.295 324.874 237.269 323.735 237.216 322.411C237.216 321.033 237.216 319.338 237.216 317.324V310.172C237.216 309.589 237.083 309.007 236.818 308.424C236.553 307.841 236.341 307.47 236.182 307.311C235.652 306.675 234.99 306.305 234.195 306.199C233.4 306.093 232.578 306.04 231.73 306.04L231.492 305.722V303.02L231.73 302.781H235.626C236.845 302.781 238.143 302.781 239.521 302.781C240.899 302.728 242.118 302.623 243.178 302.464L245.96 302.066L246.437 303.576C246.331 303.788 246.251 304.185 246.198 304.768C246.145 305.298 246.093 305.881 246.04 306.517C245.987 307.152 245.96 307.762 245.96 308.344C245.96 308.927 245.96 309.377 245.96 309.695C245.96 310.384 245.934 311.232 245.881 312.238C245.881 313.192 245.854 314.199 245.801 315.258C245.801 316.265 245.775 317.245 245.722 318.199C245.722 319.152 245.722 319.947 245.722 320.583C245.722 321.96 245.775 323.364 245.881 324.795C245.987 326.172 246.199 327.444 246.516 328.609C247.046 330.464 247.841 331.841 248.901 332.742C250.014 333.589 251.551 334.013 253.512 334.013C255.102 334.013 256.506 333.748 257.725 333.219C258.997 332.689 260.084 332.053 260.985 331.311C261.885 330.57 262.627 329.775 263.21 328.927C263.793 328.026 264.164 327.232 264.323 326.543V318.596C264.323 316.159 264.27 314.278 264.164 312.954C264.111 311.629 264.032 310.596 263.926 309.854C263.82 309.166 263.661 308.609 263.449 308.185C263.29 307.762 263.131 307.47 262.972 307.311C262.389 306.675 261.647 306.305 260.746 306.199C259.845 306.093 259.13 306.04 258.6 306.04L258.282 305.722V303.02L258.6 302.781H260.031C260.561 302.781 261.25 302.781 262.097 302.781C262.998 302.781 263.926 302.781 264.88 302.781C265.834 302.728 266.761 302.702 267.662 302.702C268.563 302.649 269.332 302.57 269.967 302.464L272.75 302.066L273.227 303.576C272.962 305.113 272.776 307.126 272.67 309.616C272.617 310.94 272.564 312.026 272.511 312.874C272.511 313.669 272.511 314.331 272.511 314.861C272.511 315.391 272.511 315.815 272.511 316.132C272.511 316.397 272.511 316.662 272.511 316.927V323.444C272.511 326.358 272.591 328.927 272.75 331.152C272.856 332.159 272.988 332.98 273.147 333.616C273.306 334.199 273.598 334.675 274.022 335.046C274.499 335.47 275.055 335.735 275.691 335.841C276.327 335.894 277.095 335.921 277.996 335.921L278.314 336.238L278.473 338.94L278.314 339.179C277.307 339.073 276.327 338.993 275.373 338.94C274.419 338.94 273.306 338.94 272.034 338.94C270.762 338.94 269.411 338.94 267.98 338.94C266.549 338.993 265.171 339.073 263.846 339.179L263.369 337.589C263.528 337.007 263.687 336.238 263.846 335.285C264.058 334.278 264.217 333.272 264.323 332.265L264.085 332.106Z" fill="white"/>
<path d="M299.457 338.384C299.616 337.907 299.722 337.219 299.775 336.318C299.881 335.417 300.013 334.596 300.172 333.854L300.093 333.616C299.457 334.411 298.715 335.179 297.867 335.921C297.072 336.662 296.171 337.325 295.164 337.907C294.157 338.49 293.071 338.94 291.905 339.258C290.792 339.629 289.6 339.815 288.328 339.815C286.42 339.815 284.75 339.523 283.319 338.94C281.889 338.358 280.696 337.589 279.742 336.636C278.788 335.682 278.046 334.57 277.516 333.298C277.039 332.026 276.801 330.702 276.801 329.324C276.801 327.258 277.251 325.457 278.152 323.921C279.053 322.384 280.246 321.139 281.73 320.185C283.107 319.285 284.724 318.596 286.579 318.119C288.434 317.589 290.235 317.192 291.984 316.927C293.733 316.662 295.323 316.503 296.754 316.45C298.185 316.344 299.139 316.291 299.616 316.291H300.729C300.676 314.649 300.57 313.377 300.411 312.477C300.252 311.523 300.04 310.729 299.775 310.093C299.298 309.033 298.503 308.291 297.39 307.868C296.33 307.391 295.058 307.152 293.574 307.152C292.673 307.152 291.693 307.232 290.633 307.391C289.626 307.497 288.672 307.735 287.771 308.106C286.87 308.477 286.075 309.007 285.386 309.695C284.75 310.331 284.379 311.179 284.273 312.238L283.955 312.477H281.412L280.696 305.007L280.935 304.53C281.253 304.212 281.862 303.868 282.763 303.497C283.664 303.126 284.75 302.781 286.022 302.464C287.294 302.093 288.672 301.801 290.156 301.589C291.693 301.324 293.23 301.192 294.767 301.192C296.834 301.192 298.768 301.457 300.57 301.987C302.372 302.464 303.909 303.205 305.181 304.212C306.505 305.219 307.539 306.49 308.281 308.027C309.023 309.51 309.394 311.258 309.394 313.272C309.394 315.444 309.367 317.298 309.314 318.834C309.314 320.371 309.288 321.801 309.235 323.126C309.182 324.45 309.129 325.748 309.076 327.02C309.076 328.238 309.076 329.616 309.076 331.152C309.182 332.371 309.314 333.245 309.473 333.775C309.632 334.305 309.897 334.728 310.268 335.046C310.692 335.47 311.328 335.735 312.176 335.841C313.077 335.894 313.898 335.921 314.64 335.921L314.879 336.238L315.038 338.94L314.958 339.258C314.057 339.152 313.024 339.073 311.858 339.02C310.692 338.967 309.606 338.94 308.599 338.94C307.115 338.94 305.631 338.94 304.147 338.94C302.663 338.993 301.259 339.073 299.934 339.179L299.457 338.384ZM299.457 329.801C299.616 329.536 299.775 329.219 299.934 328.848C300.146 328.477 300.278 328.026 300.331 327.497L300.729 320.742H300.013C298.371 320.742 296.754 320.848 295.164 321.06C293.574 321.272 292.143 321.669 290.871 322.252C289.6 322.834 288.566 323.656 287.771 324.715C286.976 325.775 286.579 327.152 286.579 328.848C286.579 330.278 286.923 331.417 287.612 332.265C288.354 333.113 289.335 333.536 290.553 333.536C291.454 333.536 292.355 333.43 293.256 333.219C294.21 332.954 295.085 332.636 295.88 332.265C296.675 331.894 297.39 331.497 298.026 331.073C298.662 330.596 299.139 330.172 299.457 329.801Z" fill="white"/>
<path d="M337.793 339.258C337.422 339.258 336.866 339.232 336.124 339.179C335.382 339.126 334.587 339.073 333.739 339.02C332.891 339.02 332.096 338.993 331.354 338.94C330.612 338.94 330.056 338.94 329.685 338.94H325.392C325.021 338.94 324.438 338.94 323.643 338.94C322.901 338.993 322.106 339.02 321.258 339.02C320.463 339.073 319.668 339.126 318.874 339.179C318.132 339.232 317.575 339.258 317.204 339.258L317.125 338.94L317.284 336.238L317.522 335.921C318.317 335.921 319.139 335.894 319.986 335.841C320.834 335.735 321.47 335.47 321.894 335.046C322.265 334.675 322.53 334.199 322.689 333.616C322.848 333.033 322.981 332.212 323.087 331.152C323.14 330.781 323.166 330.411 323.166 330.04C323.219 329.669 323.246 329.271 323.246 328.848C323.299 328.424 323.325 327.921 323.325 327.338C323.325 326.755 323.325 326.04 323.325 325.192V294.278C323.325 293.272 323.325 292.477 323.325 291.894C323.325 291.258 323.299 290.728 323.246 290.305C323.246 289.881 323.219 289.51 323.166 289.192C323.166 288.821 323.14 288.397 323.087 287.921C322.981 287.391 322.822 286.887 322.61 286.411C322.398 285.934 322.212 285.616 322.053 285.457C321.523 284.768 320.861 284.371 320.066 284.265C319.271 284.159 318.45 284.106 317.602 284.106L317.284 283.788V281.086L317.602 280.848H321.656C322.875 280.848 324.173 280.848 325.551 280.848C326.929 280.795 328.148 280.689 329.208 280.53L331.99 280.132L332.467 281.642C332.361 281.854 332.255 282.199 332.149 282.676C332.096 283.099 332.043 283.576 331.99 284.106C331.99 284.583 331.964 285.086 331.911 285.616C331.911 286.093 331.911 286.49 331.911 286.808C331.911 287.232 331.884 287.629 331.831 288C331.831 288.318 331.831 288.715 331.831 289.192C331.831 289.616 331.805 290.172 331.752 290.861C331.752 291.55 331.752 292.397 331.752 293.404V324.238C331.752 325.298 331.752 326.172 331.752 326.861C331.805 327.497 331.831 328.053 331.831 328.53C331.884 329.007 331.911 329.457 331.911 329.881C331.964 330.252 332.017 330.675 332.07 331.152C332.176 332.265 332.282 333.113 332.388 333.695C332.547 334.225 332.838 334.675 333.262 335.046C333.686 335.47 334.269 335.735 335.011 335.841C335.806 335.894 336.601 335.921 337.396 335.921L337.793 336.318L337.952 338.94L337.793 339.258Z" fill="white"/>
<path d="M361.968 339.258C361.597 339.258 361.041 339.232 360.299 339.179C359.557 339.126 358.762 339.073 357.914 339.02C357.066 339.02 356.271 338.993 355.529 338.94C354.787 338.94 354.231 338.94 353.86 338.94H349.567C349.196 338.94 348.613 338.94 347.818 338.94C347.076 338.993 346.281 339.02 345.434 339.02C344.639 339.073 343.844 339.126 343.049 339.179C342.307 339.232 341.75 339.258 341.379 339.258L341.3 338.94L341.459 336.238L341.697 335.921C342.492 335.921 343.314 335.894 344.162 335.841C345.01 335.735 345.645 335.47 346.069 335.046C346.44 334.675 346.705 334.199 346.864 333.616C347.023 333.033 347.156 332.212 347.262 331.152C347.315 330.781 347.341 330.411 347.341 330.04C347.394 329.669 347.421 329.271 347.421 328.848C347.474 328.424 347.5 327.921 347.5 327.338C347.5 326.755 347.5 326.04 347.5 325.192V316.212C347.5 315.205 347.5 314.411 347.5 313.828C347.5 313.192 347.474 312.662 347.421 312.238C347.421 311.815 347.394 311.444 347.341 311.126C347.341 310.755 347.315 310.331 347.262 309.854C347.156 309.324 346.997 308.821 346.785 308.344C346.573 307.868 346.387 307.55 346.228 307.391C345.698 306.702 345.036 306.305 344.241 306.199C343.446 306.093 342.625 306.04 341.777 306.04L341.459 305.722V303.02L341.777 302.781H345.831C347.05 302.781 348.348 302.781 349.726 302.781C351.104 302.728 352.323 302.623 353.383 302.464L356.165 302.066L356.642 303.576C356.536 303.788 356.43 304.132 356.324 304.609C356.271 305.033 356.218 305.51 356.165 306.04C356.165 306.517 356.139 307.02 356.086 307.55C356.086 308.027 356.086 308.424 356.086 308.742C356.086 309.166 356.059 309.563 356.006 309.934C356.006 310.252 356.006 310.649 356.006 311.126C356.006 311.55 355.98 312.106 355.927 312.795C355.927 313.483 355.927 314.331 355.927 315.338V324.238C355.927 325.298 355.927 326.172 355.927 326.861C355.98 327.497 356.006 328.053 356.006 328.53C356.059 329.007 356.086 329.457 356.086 329.881C356.139 330.252 356.192 330.675 356.245 331.152C356.351 332.265 356.457 333.113 356.563 333.695C356.722 334.225 357.013 334.675 357.437 335.046C357.861 335.47 358.444 335.735 359.186 335.841C359.981 335.894 360.776 335.921 361.571 335.921L361.968 336.318L362.127 338.94L361.968 339.258ZM345.831 290.225C345.831 289.589 345.963 288.954 346.228 288.318C346.493 287.682 346.864 287.126 347.341 286.649C347.818 286.119 348.348 285.722 348.931 285.457C349.567 285.139 350.23 284.98 350.919 284.98C352.244 284.98 353.436 285.536 354.496 286.649C355.609 287.709 356.165 288.901 356.165 290.225C356.165 290.914 356.006 291.576 355.688 292.212C355.423 292.795 355.026 293.325 354.496 293.801C354.019 294.278 353.462 294.649 352.827 294.914C352.191 295.179 351.555 295.311 350.919 295.311C349.541 295.311 348.348 294.808 347.341 293.801C346.334 292.795 345.831 291.603 345.831 290.225Z" fill="white"/>
<path d="M379.68 307.152H370.935C370.935 310.225 370.909 313.086 370.856 315.735C370.856 318.331 370.856 320.609 370.856 322.57C370.856 324.477 370.829 326.04 370.776 327.258C370.776 328.477 370.776 329.219 370.776 329.483C370.776 331.55 371.174 332.927 371.969 333.616C372.764 334.305 373.691 334.649 374.751 334.649C375.546 334.649 376.447 334.57 377.454 334.411C378.461 334.252 379.309 334.04 379.998 333.775L380.475 334.649L379.68 337.271C378.249 338.066 376.765 338.675 375.228 339.099C373.744 339.576 372.366 339.815 371.094 339.815C367.861 339.815 365.556 339.073 364.178 337.589C362.8 336.106 362.111 334.199 362.111 331.868C362.111 331.391 362.138 330.464 362.191 329.086C362.244 327.656 362.297 325.881 362.35 323.762C362.403 321.589 362.456 319.099 362.509 316.291C362.562 313.483 362.588 310.437 362.588 307.152H358.454L358.137 306.755V303.258L358.454 302.94L362.588 301.828C362.588 300.132 362.535 298.411 362.429 296.662C362.376 294.861 362.297 293.113 362.191 291.417L362.747 290.94L363.86 290.861C364.231 290.861 364.735 290.834 365.371 290.781C366.059 290.728 366.775 290.676 367.517 290.623C368.259 290.517 368.948 290.411 369.584 290.305C370.273 290.199 370.776 290.093 371.094 289.987L371.81 290.305C371.545 291.629 371.333 293.404 371.174 295.629C371.015 297.801 370.935 299.868 370.935 301.828L379.68 301.351L380.077 301.669V306.755L379.68 307.152Z" fill="white"/>
<path d="M406.059 348.159C405.423 349.748 404.576 351.179 403.516 352.45C402.509 353.775 401.343 354.914 400.018 355.868C398.693 356.821 397.288 357.589 395.805 358.172C394.321 358.808 392.81 359.232 391.273 359.444C390.849 359.55 390.346 359.603 389.763 359.603C389.233 359.603 388.438 359.603 387.378 359.603L3.12017 359.444L386.583 355.391L386.901 354.993H388.014C388.65 354.993 389.339 354.914 390.081 354.755C390.823 354.649 391.538 354.411 392.227 354.04C393.764 353.298 395.169 352.238 396.441 350.861C397.765 349.483 398.666 348.159 399.143 346.887L401.369 340.927L395.01 326.384C394.745 325.801 394.321 324.768 393.738 323.285C393.155 321.801 392.492 320.185 391.75 318.437C391.008 316.636 390.213 314.861 389.366 313.113C388.571 311.364 387.829 309.907 387.14 308.742C386.61 307.894 386 307.232 385.311 306.755C384.675 306.278 383.801 305.987 382.688 305.881L382.211 305.483V302.781L382.529 302.464C383.43 302.57 384.384 302.676 385.391 302.781C386.398 302.887 387.325 302.94 388.173 302.94H394.453C395.248 302.94 396.202 302.887 397.315 302.781C398.481 302.676 399.541 302.57 400.495 302.464L400.813 302.781V305.325L400.495 305.642C399.488 305.748 398.613 306.066 397.871 306.596C397.183 307.073 396.838 307.788 396.838 308.742C396.838 309.377 397.05 310.437 397.474 311.921C397.951 313.351 398.481 314.887 399.064 316.53C399.7 318.172 400.283 319.709 400.813 321.139C401.396 322.517 401.767 323.444 401.926 323.921L405.344 333.536L409.319 323.921C409.69 323.073 410.14 322.013 410.67 320.742C411.2 319.417 411.704 318.04 412.181 316.609C412.71 315.179 413.161 313.775 413.532 312.397C413.903 311.02 414.088 309.801 414.088 308.742C414.088 307.576 413.691 306.808 412.896 306.437C412.101 306.013 411.253 305.748 410.352 305.642L410.034 305.325V302.781L410.352 302.464C411.359 302.675 412.313 302.808 413.214 302.861C414.115 302.914 414.963 302.94 415.758 302.94H422.197C423.098 302.94 423.972 302.887 424.82 302.781C425.721 302.676 426.675 302.57 427.682 302.464L428 302.781V305.483L427.523 305.881C426.622 305.987 425.827 306.252 425.138 306.676C424.502 307.099 423.893 307.788 423.31 308.742C422.515 310.013 421.614 311.656 420.607 313.669C419.653 315.629 418.699 317.616 417.745 319.629C416.844 321.642 416.023 323.47 415.281 325.113C414.539 326.755 414.062 327.894 413.85 328.53L406.059 348.159Z" fill="#EBF228"/>
<path d="M19.7545 378.675C19.675 378.093 19.4232 377.603 18.9993 377.205C18.5753 376.808 18.0453 376.49 17.4094 376.252C16.7999 376.013 16.1109 375.854 15.3425 375.775C14.6005 375.669 13.8586 375.616 13.1166 375.616C10.4933 375.616 8.42645 376.212 6.91605 377.404C5.67063 378.411 4.72994 379.748 4.09398 381.417C3.48452 383.086 3.17979 384.914 3.17979 386.901C3.17979 388.781 3.44477 390.437 3.97474 391.868C4.5312 393.272 5.2864 394.45 6.24034 395.404C7.19428 396.358 8.32046 397.086 9.61887 397.589C10.9438 398.066 12.3747 398.305 13.9116 398.305C14.998 398.305 16.2434 398.159 17.6478 397.868C19.0788 397.55 20.4302 396.954 21.7021 396.079L22.0996 396.517L21.2251 398.305C19.9002 399.02 18.5753 399.55 17.2504 399.894C15.952 400.212 14.6005 400.371 13.1961 400.371C11.2088 400.371 9.40689 400.053 7.79049 399.417C6.1741 398.781 4.78294 397.881 3.61701 396.715C2.47759 395.523 1.5899 394.119 0.953938 392.503C0.317979 390.861 0 389.046 0 387.06C0 385.205 0.278232 383.457 0.834695 381.815C1.41766 380.146 2.2656 378.702 3.37853 377.483C4.51796 376.265 5.90911 375.298 7.55201 374.583C9.2214 373.868 11.1558 373.51 13.3551 373.51C13.8321 373.51 14.3886 373.536 15.0245 373.589C15.687 373.616 16.3759 373.682 17.0914 373.788C17.8068 373.894 18.5355 374.04 19.2775 374.225C20.0194 374.384 20.7349 374.596 21.4239 374.861L21.5431 375.219L21.0264 378.834H19.8737L19.7545 378.675Z" fill="white" fill-opacity="0.5"/>
<path d="M38.8543 381.06C40.4177 381.06 41.8089 381.338 43.0278 381.894C44.2467 382.424 45.2669 383.152 46.0884 384.079C46.9363 384.98 47.5723 386.026 47.9962 387.219C48.4467 388.411 48.6719 389.642 48.6719 390.914C48.6719 392.132 48.4732 393.311 48.0757 394.45C47.6783 395.589 47.0688 396.596 46.2473 397.47C45.4259 398.344 44.4057 399.046 43.1868 399.576C41.9679 400.106 40.5502 400.371 38.9338 400.371C37.2644 400.371 35.807 400.093 34.5616 399.536C33.3162 398.98 32.2828 398.252 31.4613 397.351C30.6664 396.45 30.0701 395.43 29.6727 394.291C29.2752 393.126 29.0765 391.934 29.0765 390.715C29.0765 389.417 29.3017 388.185 29.7522 387.02C30.2026 385.854 30.8386 384.834 31.66 383.96C32.508 383.06 33.5282 382.358 34.7206 381.854C35.9395 381.324 37.3174 381.06 38.8543 381.06ZM38.8941 398.821C40.007 398.821 40.9874 398.596 41.8354 398.146C42.6833 397.695 43.3855 397.099 43.942 396.358C44.4985 395.616 44.9092 394.781 45.1742 393.854C45.4656 392.901 45.6114 391.921 45.6114 390.914C45.6114 389.96 45.4524 388.993 45.1344 388.013C44.8429 387.033 44.4057 386.159 43.8228 385.391C43.2398 384.596 42.5243 383.96 41.6764 383.483C40.8285 382.98 39.848 382.728 38.7351 382.728C37.5692 382.728 36.5622 382.967 35.7143 383.444C34.8928 383.894 34.2039 384.49 33.6474 385.232C33.1174 385.974 32.72 386.821 32.455 387.775C32.19 388.728 32.0575 389.682 32.0575 390.636C32.0575 391.616 32.2033 392.596 32.4947 393.576C32.8127 394.53 33.2632 395.404 33.8462 396.199C34.4291 396.967 35.1446 397.603 35.9925 398.106C36.8405 398.583 37.8076 398.821 38.8941 398.821Z" fill="white" fill-opacity="0.5"/>
<path d="M55.628 381.974L55.787 381.854H56.5025C56.953 381.854 57.5227 381.854 58.2116 381.854C58.9006 381.828 59.4968 381.775 60.0003 381.695L61.3914 381.497L61.6299 381.854C61.5769 382.013 61.5239 382.225 61.4709 382.49C61.4444 382.728 61.4047 383.007 61.3517 383.324C61.3252 383.616 61.2987 383.907 61.2722 384.199C61.2457 384.49 61.2324 384.742 61.2324 384.954L61.3517 385.033C61.6431 384.503 61.9744 384 62.3453 383.523C62.7428 383.02 63.1933 382.596 63.6968 382.252C64.2002 381.881 64.7699 381.589 65.4059 381.377C66.0419 381.166 66.7706 381.06 67.592 381.06C68.281 381.06 68.9567 381.152 69.6191 381.338C70.2816 381.497 70.891 381.762 71.4475 382.132C72.0305 382.477 72.5339 382.94 72.9579 383.523C73.4084 384.079 73.7529 384.755 73.9913 385.55C74.3093 384.967 74.6538 384.411 75.0248 383.881C75.4222 383.324 75.8727 382.848 76.3762 382.45C76.9062 382.026 77.5024 381.695 78.1648 381.457C78.8538 381.192 79.6355 381.06 80.5099 381.06C81.2784 381.06 82.0203 381.166 82.7358 381.377C83.4777 381.589 84.1402 381.921 84.7231 382.371C85.3326 382.821 85.8493 383.391 86.2733 384.079C86.7238 384.768 87.0285 385.603 87.1875 386.583C87.32 387.272 87.3862 388 87.3862 388.768C87.4127 389.536 87.426 390.305 87.426 391.073V396.834C87.426 397.444 87.479 397.894 87.585 398.185C87.6909 398.45 87.8367 398.649 88.0222 398.781C88.2342 398.993 88.5389 399.126 88.9364 399.179C89.3603 399.205 89.7843 399.219 90.2083 399.219L90.3673 399.377L90.4468 399.934L90.3673 400.093C89.8903 400.04 89.3736 400 88.8171 399.973C88.2872 399.947 87.7439 399.934 87.1875 399.934C86.207 399.934 85.3061 399.974 84.4847 400.053L84.2064 399.656C84.3124 399.311 84.3919 398.861 84.4449 398.305C84.4979 397.748 84.5377 397.258 84.5641 396.834C84.5906 396.437 84.6039 395.947 84.6039 395.364C84.6304 394.781 84.6436 394.199 84.6436 393.616C84.6701 393.007 84.6834 392.437 84.6834 391.907C84.6834 391.377 84.6834 390.967 84.6834 390.675C84.6834 390.146 84.6569 389.483 84.6039 388.689C84.5774 387.868 84.4979 387.179 84.3654 386.622C84.1004 385.536 83.5572 384.715 82.7358 384.159C81.9408 383.603 81.0399 383.324 80.0329 383.324C79.291 383.324 78.602 383.47 77.9661 383.762C77.3566 384.026 76.8134 384.371 76.3364 384.795C75.8595 385.192 75.4487 385.642 75.1043 386.146C74.7863 386.649 74.5478 387.126 74.3888 387.576C74.4418 388.159 74.4683 388.742 74.4683 389.324C74.4948 389.907 74.5081 390.49 74.5081 391.073V396.834C74.5081 397.391 74.561 397.815 74.667 398.106C74.773 398.371 74.932 398.596 75.144 398.781C75.356 398.967 75.6475 399.086 76.0185 399.139C76.4159 399.192 76.8134 399.219 77.2109 399.219L77.4096 399.417L77.4891 399.934L77.4096 400.093C77.2241 400.093 76.9459 400.079 76.5749 400.053C76.2039 400.026 75.8065 400 75.3825 399.973C74.9585 399.973 74.561 399.96 74.1901 399.934C73.8191 399.934 73.5409 399.934 73.3554 399.934H72.7989C72.6134 399.934 72.3219 399.934 71.9245 399.934C71.5535 399.96 71.156 399.973 70.7321 399.973C70.3346 400 69.9371 400.026 69.5396 400.053C69.1687 400.079 68.8904 400.093 68.7049 400.093L68.6254 399.934L68.7049 399.377L68.8639 399.219C69.2879 399.219 69.6986 399.205 70.0961 399.179C70.5201 399.126 70.838 398.993 71.05 398.781C71.262 398.596 71.3945 398.358 71.4475 398.066C71.5005 397.775 71.5535 397.364 71.6065 396.834C71.633 396.437 71.6462 395.947 71.6462 395.364C71.6727 394.781 71.686 394.199 71.686 393.616C71.7125 393.007 71.7257 392.437 71.7257 391.907C71.7522 391.377 71.7655 390.967 71.7655 390.675C71.7655 390.411 71.7655 390.106 71.7655 389.762C71.7655 389.391 71.7522 389.02 71.7257 388.649C71.6992 388.278 71.6595 387.921 71.6065 387.576C71.58 387.232 71.527 386.914 71.4475 386.622C71.156 385.536 70.6128 384.715 69.8179 384.159C69.0229 383.603 68.122 383.324 67.115 383.324C66.2406 383.324 65.4456 383.523 64.7302 383.921C64.0147 384.291 63.392 384.755 62.8621 385.311C62.3586 385.841 61.9611 386.411 61.6696 387.02C61.4047 387.603 61.2722 388.106 61.2722 388.53V392.98C61.2722 393.563 61.2722 394.04 61.2722 394.411C61.2987 394.781 61.3119 395.099 61.3119 395.364C61.3384 395.629 61.3517 395.881 61.3517 396.119C61.3782 396.331 61.4047 396.57 61.4312 396.834C61.4842 397.391 61.5372 397.815 61.5901 398.106C61.6696 398.371 61.8154 398.596 62.0274 398.781C62.2394 398.967 62.5308 399.086 62.9018 399.139C63.2993 399.192 63.6968 399.219 64.0942 399.219L64.293 399.417L64.3725 399.934L64.293 400.093C64.1075 400.093 63.8293 400.079 63.4583 400.053C63.0873 400.026 62.6898 400 62.2659 399.973C61.8419 399.973 61.4444 399.96 61.0734 399.934C60.7025 399.934 60.4242 399.934 60.2387 399.934H59.6823C59.4968 399.934 59.2053 399.934 58.8078 399.934C58.4369 399.96 58.0394 399.973 57.6154 399.973C57.2179 400 56.8205 400.026 56.423 400.053C56.052 400.079 55.7738 400.093 55.5883 400.093L55.5485 399.934L55.5883 399.377L55.7473 399.219C56.1713 399.219 56.582 399.205 56.9794 399.179C57.4034 399.126 57.7214 398.993 57.9334 398.781C58.1454 398.596 58.2779 398.358 58.3309 398.066C58.4104 397.775 58.4766 397.364 58.5296 396.834C58.5561 396.411 58.5826 395.987 58.6091 395.563C58.6356 395.113 58.6488 394.411 58.6488 393.457V388.57C58.6488 388.013 58.6488 387.55 58.6488 387.179C58.6488 386.781 58.6356 386.437 58.6091 386.146C58.6091 385.854 58.5958 385.589 58.5693 385.351C58.5693 385.113 58.5561 384.861 58.5296 384.596C58.4766 384.305 58.3971 384.053 58.2911 383.841C58.1851 383.603 58.0924 383.444 58.0129 383.364C57.7479 383.046 57.4167 382.861 57.0192 382.808C56.6217 382.728 56.211 382.689 55.787 382.689L55.628 382.53V381.974Z" fill="white" fill-opacity="0.5"/>
<path d="M111.864 396.517C111.175 397.629 110.287 398.556 109.201 399.298C108.141 400.013 106.829 400.371 105.266 400.371C104.497 400.371 103.755 400.278 103.04 400.093C102.351 399.934 101.702 399.656 101.092 399.258C100.509 398.861 100.006 398.331 99.5818 397.669C99.1579 397.007 98.8531 396.172 98.6676 395.166C98.5351 394.477 98.4689 393.762 98.4689 393.02C98.4954 392.252 98.4954 391.483 98.4689 390.715C98.4689 390.371 98.4557 389.907 98.4292 389.324C98.4292 388.715 98.4292 388.106 98.4292 387.497C98.4292 386.861 98.4292 386.278 98.4292 385.748C98.4292 385.219 98.4292 384.834 98.4292 384.596C98.4292 384.305 98.3629 384.053 98.2304 383.841C98.0979 383.603 97.9919 383.43 97.9124 383.324C97.6475 383.033 97.3162 382.861 96.9188 382.808C96.5213 382.728 96.1106 382.689 95.6866 382.689L95.5673 382.53V381.974L95.6866 381.854H96.402C96.8525 381.854 97.4222 381.854 98.1112 381.854C98.8001 381.828 99.3964 381.775 99.8998 381.695L101.291 381.497L101.529 381.854C101.476 381.96 101.437 382.159 101.41 382.45C101.384 382.715 101.357 383.007 101.331 383.324C101.304 383.642 101.291 383.947 101.291 384.238C101.291 384.53 101.291 384.755 101.291 384.914C101.291 385.364 101.278 385.868 101.251 386.424C101.251 386.954 101.238 387.497 101.211 388.053C101.211 388.609 101.198 389.139 101.172 389.642C101.172 390.146 101.172 390.57 101.172 390.914C101.172 391.497 101.185 392.159 101.211 392.901C101.264 393.616 101.357 394.238 101.49 394.768C101.755 396.013 102.298 396.94 103.119 397.55C103.941 398.159 104.895 398.464 105.981 398.464C106.803 398.464 107.558 398.305 108.247 397.987C108.936 397.642 109.532 397.232 110.035 396.755C110.565 396.278 110.989 395.775 111.307 395.245C111.652 394.689 111.877 394.185 111.983 393.735V388.57C111.983 388.013 111.97 387.55 111.943 387.179C111.943 386.781 111.93 386.437 111.904 386.146C111.904 385.854 111.89 385.589 111.864 385.351C111.864 385.113 111.851 384.861 111.824 384.596C111.771 384.305 111.692 384.053 111.586 383.841C111.506 383.603 111.427 383.444 111.347 383.364C111.082 383.046 110.751 382.861 110.353 382.808C109.956 382.728 109.545 382.689 109.121 382.689L108.962 382.53V381.974L109.121 381.854H109.837C110.287 381.854 110.857 381.854 111.546 381.854C112.235 381.828 112.818 381.775 113.295 381.695L114.686 381.497L114.924 381.854C114.871 381.96 114.832 382.159 114.805 382.45C114.779 382.715 114.752 383.007 114.726 383.324C114.699 383.642 114.686 383.947 114.686 384.238C114.686 384.53 114.686 384.755 114.686 384.914C114.686 385.126 114.673 385.324 114.646 385.51C114.646 385.695 114.646 385.921 114.646 386.185C114.646 386.45 114.633 386.768 114.606 387.139C114.606 387.483 114.606 387.947 114.606 388.53V392.98C114.606 393.563 114.606 394.04 114.606 394.411C114.633 394.781 114.646 395.099 114.646 395.364C114.673 395.629 114.686 395.881 114.686 396.119C114.712 396.331 114.726 396.57 114.726 396.834C114.779 397.444 114.845 397.894 114.924 398.185C115.004 398.45 115.136 398.649 115.322 398.781C115.534 398.993 115.839 399.126 116.236 399.179C116.66 399.205 117.084 399.219 117.508 399.219L117.667 399.377L117.746 399.934L117.667 400.093C117.19 400.04 116.673 400 116.117 399.973C115.56 399.947 115.017 399.934 114.487 399.934C113.48 399.934 112.566 399.974 111.745 400.053L111.506 399.656C111.586 399.311 111.665 398.861 111.745 398.305C111.851 397.748 111.93 397.179 111.983 396.596L111.864 396.517Z" fill="white" fill-opacity="0.5"/>
<path d="M129.497 385.073C130.186 383.934 131.074 382.98 132.16 382.212C133.247 381.444 134.598 381.06 136.214 381.06C136.956 381.06 137.698 381.166 138.44 381.377C139.182 381.589 139.858 381.921 140.467 382.371C141.103 382.821 141.62 383.404 142.017 384.119C142.441 384.808 142.72 385.629 142.852 386.583C142.932 387.272 142.971 388 142.971 388.768C142.998 389.536 143.011 390.305 143.011 391.073C143.011 392.026 143.011 392.993 143.011 393.974C143.038 394.927 143.051 395.881 143.051 396.834C143.104 397.444 143.17 397.894 143.25 398.185C143.329 398.45 143.448 398.649 143.607 398.781C143.846 398.993 144.164 399.126 144.561 399.179C144.985 399.205 145.409 399.219 145.833 399.219L145.952 399.377L146.032 399.934L145.952 400.093C145.502 400.04 144.999 400 144.442 399.973C143.886 399.947 143.342 399.934 142.812 399.934C141.805 399.934 140.891 399.974 140.07 400.053L139.792 399.656C139.898 399.311 139.977 398.861 140.03 398.305C140.083 397.748 140.123 397.258 140.149 396.834C140.202 395.722 140.242 394.636 140.269 393.576C140.295 392.49 140.308 391.589 140.308 390.874C140.308 390.265 140.282 389.603 140.229 388.887C140.202 388.172 140.123 387.55 139.99 387.02C139.725 385.775 139.182 384.848 138.361 384.238C137.539 383.629 136.585 383.324 135.499 383.324C134.624 383.324 133.803 383.51 133.035 383.881C132.293 384.252 131.657 384.715 131.127 385.271C130.597 385.801 130.173 386.371 129.855 386.98C129.563 387.563 129.418 388.066 129.418 388.49V392.98C129.418 393.563 129.418 394.04 129.418 394.411C129.418 394.781 129.418 395.099 129.418 395.364C129.444 395.629 129.471 395.881 129.497 396.119C129.524 396.331 129.55 396.57 129.577 396.834C129.63 397.391 129.683 397.815 129.736 398.106C129.815 398.371 129.961 398.596 130.173 398.781C130.385 398.967 130.676 399.086 131.047 399.139C131.445 399.192 131.842 399.219 132.24 399.219L132.438 399.417L132.518 399.934L132.438 400.093C132.253 400.093 131.975 400.079 131.604 400.053C131.233 400.026 130.835 400 130.411 399.973C129.987 399.973 129.59 399.96 129.219 399.934C128.848 399.934 128.57 399.934 128.384 399.934H127.828C127.642 399.934 127.351 399.934 126.953 399.934C126.582 399.96 126.185 399.973 125.761 399.973C125.363 400 124.966 400.026 124.568 400.053C124.197 400.079 123.919 400.093 123.734 400.093L123.694 399.934L123.734 399.377L123.893 399.219C124.317 399.219 124.727 399.205 125.125 399.179C125.549 399.126 125.867 398.993 126.079 398.781C126.291 398.596 126.423 398.358 126.476 398.066C126.556 397.775 126.622 397.364 126.675 396.834C126.701 396.411 126.728 395.987 126.754 395.563C126.781 395.113 126.794 394.411 126.794 393.457V388.57C126.794 388.013 126.794 387.55 126.794 387.179C126.794 386.781 126.781 386.437 126.754 386.146C126.754 385.854 126.741 385.589 126.715 385.351C126.715 385.113 126.701 384.861 126.675 384.596C126.622 384.305 126.542 384.053 126.436 383.841C126.33 383.603 126.238 383.444 126.158 383.364C125.893 383.046 125.562 382.861 125.165 382.808C124.767 382.728 124.356 382.689 123.932 382.689L123.773 382.53V381.974L123.932 381.854H124.648C125.098 381.854 125.668 381.854 126.357 381.854C127.046 381.828 127.642 381.775 128.146 381.695L129.537 381.497L129.775 381.854C129.643 382.199 129.55 382.675 129.497 383.285C129.444 383.868 129.404 384.437 129.378 384.993L129.497 385.073Z" fill="white" fill-opacity="0.5"/>
<path d="M160.475 400.093C160.29 400.093 160.011 400.079 159.64 400.053C159.269 400.026 158.872 400 158.448 399.973C158.024 399.973 157.627 399.96 157.256 399.934C156.885 399.934 156.606 399.934 156.421 399.934H155.864C155.679 399.934 155.387 399.934 154.99 399.934C154.619 399.96 154.222 399.973 153.798 399.973C153.4 400 153.003 400.026 152.605 400.053C152.234 400.079 151.956 400.093 151.77 400.093L151.731 399.934L151.77 399.377L151.929 399.219C152.353 399.219 152.764 399.205 153.162 399.179C153.586 399.126 153.904 398.993 154.116 398.781C154.328 398.596 154.46 398.358 154.513 398.066C154.593 397.775 154.659 397.364 154.712 396.834C154.738 396.411 154.765 395.987 154.791 395.563C154.818 395.113 154.831 394.411 154.831 393.457V388.57C154.831 388.013 154.831 387.55 154.831 387.179C154.831 386.781 154.818 386.437 154.791 386.146C154.791 385.854 154.778 385.589 154.752 385.351C154.752 385.113 154.738 384.861 154.712 384.596C154.659 384.305 154.579 384.053 154.473 383.841C154.367 383.603 154.275 383.444 154.195 383.364C153.93 383.046 153.599 382.861 153.201 382.808C152.804 382.728 152.393 382.689 151.969 382.689L151.81 382.53V381.974L151.969 381.854H152.685C153.135 381.854 153.705 381.854 154.394 381.854C155.083 381.828 155.679 381.775 156.182 381.695L157.574 381.497L157.812 381.854C157.759 381.96 157.706 382.146 157.653 382.411C157.627 382.676 157.6 382.967 157.574 383.285C157.574 383.576 157.56 383.868 157.534 384.159C157.534 384.45 157.534 384.675 157.534 384.834C157.534 385.046 157.521 385.258 157.494 385.47C157.494 385.656 157.494 385.881 157.494 386.146C157.494 386.411 157.481 386.728 157.454 387.099C157.454 387.47 157.454 387.947 157.454 388.53V392.98C157.454 393.563 157.454 394.04 157.454 394.411C157.481 394.781 157.494 395.099 157.494 395.364C157.521 395.629 157.534 395.881 157.534 396.119C157.56 396.331 157.587 396.57 157.613 396.834C157.666 397.391 157.719 397.815 157.772 398.106C157.852 398.371 157.998 398.596 158.21 398.781C158.422 398.967 158.713 399.086 159.084 399.139C159.481 399.192 159.879 399.219 160.276 399.219L160.475 399.417L160.555 399.934L160.475 400.093ZM153.798 374.861C153.798 374.331 153.97 373.881 154.314 373.51C154.685 373.113 155.136 372.914 155.666 372.914C156.196 372.914 156.646 373.113 157.017 373.51C157.415 373.881 157.613 374.331 157.613 374.861C157.613 375.391 157.415 375.841 157.017 376.212C156.646 376.556 156.196 376.728 155.666 376.728C155.136 376.728 154.685 376.556 154.314 376.212C153.97 375.841 153.798 375.391 153.798 374.861Z" fill="white" fill-opacity="0.5"/>
<path d="M182.232 385.907L182.073 385.788C182.073 385.179 181.887 384.689 181.516 384.318C181.172 383.921 180.748 383.616 180.244 383.404C179.741 383.192 179.198 383.046 178.615 382.967C178.058 382.887 177.568 382.848 177.144 382.848C175.925 382.848 174.865 383.073 173.964 383.523C173.09 383.947 172.361 384.53 171.778 385.271C171.195 385.987 170.758 386.821 170.466 387.775C170.201 388.702 170.069 389.656 170.069 390.636C170.069 391.642 170.215 392.609 170.506 393.536C170.824 394.464 171.301 395.285 171.937 396C172.573 396.715 173.368 397.285 174.322 397.709C175.276 398.132 176.415 398.344 177.74 398.344C178.641 398.344 179.635 398.212 180.721 397.947C181.834 397.656 182.788 397.298 183.583 396.874L183.98 397.271L183.384 398.384C183.093 398.596 182.709 398.821 182.232 399.06C181.781 399.271 181.264 399.483 180.681 399.695C180.098 399.881 179.463 400.04 178.774 400.172C178.111 400.305 177.449 400.371 176.786 400.371C175.488 400.371 174.242 400.146 173.05 399.695C171.884 399.219 170.851 398.57 169.95 397.748C169.075 396.901 168.373 395.894 167.843 394.728C167.313 393.536 167.048 392.225 167.048 390.795C167.048 389.338 167.313 388.013 167.843 386.821C168.373 385.629 169.102 384.609 170.029 383.762C170.957 382.914 172.03 382.252 173.249 381.775C174.494 381.298 175.819 381.06 177.223 381.06C178.495 381.06 179.688 381.219 180.801 381.536C181.94 381.854 182.801 382.172 183.384 382.49L183.504 382.848L183.066 385.907H182.232Z" fill="white" fill-opacity="0.5"/>
<path d="M202.176 399.656C202.256 399.364 202.309 398.927 202.335 398.344C202.388 397.762 202.455 397.219 202.534 396.715L202.494 396.596C202.15 397.073 201.739 397.536 201.262 397.987C200.785 398.437 200.255 398.848 199.672 399.219C199.116 399.563 198.506 399.841 197.844 400.053C197.208 400.265 196.532 400.371 195.817 400.371C194.995 400.371 194.267 400.225 193.631 399.934C192.995 399.642 192.465 399.258 192.041 398.781C191.617 398.305 191.299 397.748 191.087 397.113C190.875 396.477 190.769 395.815 190.769 395.126C190.769 394.146 190.994 393.298 191.445 392.583C191.895 391.841 192.491 391.232 193.233 390.755C193.922 390.331 194.73 389.987 195.658 389.722C196.612 389.457 197.526 389.272 198.4 389.166C199.301 389.033 200.11 388.954 200.825 388.927C201.54 388.874 202.017 388.848 202.256 388.848H202.812C202.786 387.868 202.733 387.099 202.653 386.543C202.574 385.96 202.468 385.483 202.335 385.113C202.044 384.318 201.54 383.748 200.825 383.404C200.11 383.033 199.248 382.848 198.241 382.848C197.817 382.848 197.354 382.887 196.85 382.967C196.373 383.046 195.91 383.192 195.459 383.404C195.035 383.616 194.664 383.921 194.346 384.318C194.028 384.689 193.843 385.179 193.79 385.788L193.631 385.907H192.756L192.399 382.967L192.518 382.728C192.65 382.57 192.929 382.397 193.352 382.212C193.776 382.026 194.267 381.854 194.823 381.695C195.406 381.51 196.042 381.364 196.731 381.258C197.446 381.126 198.149 381.06 198.838 381.06C199.792 381.06 200.679 381.192 201.501 381.457C202.322 381.695 203.024 382.066 203.607 382.57C204.217 383.073 204.694 383.709 205.038 384.477C205.383 385.219 205.555 386.093 205.555 387.099C205.555 388.212 205.542 389.205 205.515 390.079C205.515 390.927 205.502 391.722 205.475 392.464C205.449 393.179 205.422 393.894 205.396 394.609C205.396 395.298 205.396 396.04 205.396 396.834C205.449 397.444 205.515 397.894 205.595 398.185C205.674 398.45 205.807 398.649 205.992 398.781C206.204 398.993 206.509 399.126 206.906 399.179C207.33 399.205 207.754 399.219 208.178 399.219L208.337 399.377L208.377 399.934L208.337 400.093C207.86 400.04 207.344 400 206.787 399.973C206.231 399.947 205.687 399.934 205.157 399.934C204.151 399.934 203.236 399.974 202.415 400.053L202.176 399.656ZM202.176 395.364C202.256 395.232 202.335 395.073 202.415 394.887C202.521 394.702 202.587 394.477 202.614 394.212L202.812 390.238H202.455C201.395 390.238 200.335 390.305 199.275 390.437C198.215 390.543 197.261 390.768 196.413 391.113C195.592 391.457 194.916 391.934 194.386 392.543C193.856 393.152 193.591 393.934 193.591 394.887C193.591 395.894 193.882 396.702 194.465 397.311C195.048 397.894 195.804 398.185 196.731 398.185C197.287 398.185 197.844 398.093 198.4 397.907C198.957 397.722 199.474 397.483 199.951 397.192C200.454 396.901 200.891 396.596 201.262 396.278C201.66 395.96 201.964 395.656 202.176 395.364Z" fill="white" fill-opacity="0.5"/>
<path d="M219.828 407.007L220.345 406.093H220.623C220.941 406.225 221.338 406.331 221.815 406.411C222.319 406.517 222.836 406.57 223.365 406.57C223.948 406.57 224.439 406.45 224.836 406.212C225.26 406 225.472 405.589 225.472 404.98C225.472 404.265 225.273 403.775 224.876 403.51C224.478 403.272 224.001 403.152 223.445 403.152C223.127 403.152 222.796 403.179 222.451 403.232C222.107 403.285 221.789 403.351 221.497 403.43L221.179 402.993L222.968 400.291C221.802 400.132 220.716 399.801 219.709 399.298C218.702 398.768 217.814 398.093 217.046 397.271C216.304 396.45 215.707 395.497 215.257 394.411C214.833 393.298 214.621 392.093 214.621 390.795C214.621 389.338 214.886 388.013 215.416 386.821C215.946 385.629 216.675 384.609 217.602 383.762C218.53 382.914 219.603 382.252 220.822 381.775C222.067 381.298 223.392 381.06 224.796 381.06C226.068 381.06 227.261 381.219 228.374 381.536C229.513 381.854 230.374 382.172 230.957 382.49L231.076 382.848L230.639 385.907H229.805L229.646 385.788C229.646 385.179 229.46 384.689 229.089 384.318C228.745 383.921 228.321 383.616 227.817 383.404C227.314 383.192 226.771 383.046 226.188 382.967C225.631 382.887 225.141 382.848 224.717 382.848C223.498 382.848 222.438 383.073 221.537 383.523C220.663 383.947 219.934 384.53 219.351 385.271C218.768 385.987 218.331 386.821 218.039 387.775C217.774 388.702 217.642 389.656 217.642 390.636C217.642 391.642 217.788 392.609 218.079 393.536C218.397 394.464 218.874 395.285 219.51 396C220.146 396.715 220.941 397.285 221.895 397.709C222.849 398.132 223.988 398.344 225.313 398.344C226.214 398.344 227.208 398.212 228.294 397.947C229.407 397.656 230.361 397.298 231.156 396.874L231.553 397.271L230.957 398.384C230.666 398.596 230.282 398.821 229.805 399.06C229.354 399.271 228.837 399.483 228.254 399.695C227.671 399.881 227.035 400.04 226.347 400.172C225.684 400.305 225.022 400.371 224.359 400.371L223.365 401.96C223.604 401.907 223.829 401.868 224.041 401.841C224.28 401.815 224.492 401.801 224.677 401.801C225.605 401.801 226.36 402.066 226.943 402.596C227.526 403.152 227.817 403.841 227.817 404.662C227.817 405.113 227.711 405.536 227.499 405.934C227.287 406.331 226.983 406.675 226.585 406.967C226.214 407.285 225.764 407.536 225.234 407.722C224.704 407.907 224.121 408 223.485 408C222.849 408 222.213 407.921 221.577 407.762C220.941 407.629 220.371 407.457 219.868 407.245L219.828 407.007Z" fill="white" fill-opacity="0.5"/>
<path d="M249.749 399.656C249.829 399.364 249.882 398.927 249.908 398.344C249.961 397.762 250.028 397.219 250.107 396.715L250.067 396.596C249.723 397.073 249.312 397.536 248.835 397.987C248.358 398.437 247.828 398.848 247.245 399.219C246.689 399.563 246.079 399.841 245.417 400.053C244.781 400.265 244.105 400.371 243.39 400.371C242.568 400.371 241.84 400.225 241.204 399.934C240.568 399.642 240.038 399.258 239.614 398.781C239.19 398.305 238.872 397.748 238.66 397.113C238.448 396.477 238.342 395.815 238.342 395.126C238.342 394.146 238.567 393.298 239.018 392.583C239.468 391.841 240.064 391.232 240.806 390.755C241.495 390.331 242.303 389.987 243.231 389.722C244.185 389.457 245.099 389.272 245.973 389.166C246.874 389.033 247.683 388.954 248.398 388.927C249.113 388.874 249.59 388.848 249.829 388.848H250.385C250.359 387.868 250.306 387.099 250.226 386.543C250.147 385.96 250.041 385.483 249.908 385.113C249.617 384.318 249.113 383.748 248.398 383.404C247.683 383.033 246.821 382.848 245.814 382.848C245.39 382.848 244.927 382.887 244.423 382.967C243.946 383.046 243.483 383.192 243.032 383.404C242.608 383.616 242.237 383.921 241.919 384.318C241.601 384.689 241.416 385.179 241.363 385.788L241.204 385.907H240.329L239.972 382.967L240.091 382.728C240.223 382.57 240.501 382.397 240.925 382.212C241.349 382.026 241.84 381.854 242.396 381.695C242.979 381.51 243.615 381.364 244.304 381.258C245.019 381.126 245.722 381.06 246.411 381.06C247.365 381.06 248.252 381.192 249.074 381.457C249.895 381.695 250.597 382.066 251.18 382.57C251.79 383.073 252.267 383.709 252.611 384.477C252.956 385.219 253.128 386.093 253.128 387.099C253.128 388.212 253.115 389.205 253.088 390.079C253.088 390.927 253.075 391.722 253.048 392.464C253.022 393.179 252.995 393.894 252.969 394.609C252.969 395.298 252.969 396.04 252.969 396.834C253.022 397.444 253.088 397.894 253.168 398.185C253.247 398.45 253.38 398.649 253.565 398.781C253.777 398.993 254.082 399.126 254.479 399.179C254.903 399.205 255.327 399.219 255.751 399.219L255.91 399.377L255.95 399.934L255.91 400.093C255.433 400.04 254.917 400 254.36 399.973C253.804 399.947 253.26 399.934 252.73 399.934C251.724 399.934 250.809 399.974 249.988 400.053L249.749 399.656ZM249.749 395.364C249.829 395.232 249.908 395.073 249.988 394.887C250.094 394.702 250.16 394.477 250.187 394.212L250.385 390.238H250.028C248.968 390.238 247.908 390.305 246.848 390.437C245.788 390.543 244.834 390.768 243.986 391.113C243.165 391.457 242.489 391.934 241.959 392.543C241.429 393.152 241.164 393.934 241.164 394.887C241.164 395.894 241.455 396.702 242.038 397.311C242.621 397.894 243.377 398.185 244.304 398.185C244.86 398.185 245.417 398.093 245.973 397.907C246.53 397.722 247.047 397.483 247.524 397.192C248.027 396.901 248.464 396.596 248.835 396.278C249.233 395.96 249.537 395.656 249.749 395.364ZM252.691 373.391C252.691 373.47 252.624 373.682 252.492 374.026C252.359 374.344 252.147 374.689 251.856 375.06C251.591 375.404 251.233 375.722 250.783 376.013C250.359 376.305 249.829 376.45 249.193 376.45C248.901 376.45 248.477 376.437 247.921 376.411C247.391 376.358 246.808 376.318 246.172 376.291C245.563 376.238 244.953 376.199 244.344 376.172C243.734 376.119 243.218 376.093 242.794 376.093C242.131 376.093 241.667 376.185 241.402 376.371C241.137 376.53 240.872 376.768 240.607 377.086L240.091 376.768C240.091 376.583 240.17 376.318 240.329 375.974C240.488 375.629 240.727 375.298 241.045 374.98C241.363 374.636 241.747 374.344 242.197 374.106C242.648 373.868 243.151 373.748 243.708 373.748C244.397 373.748 245.258 373.815 246.291 373.947C247.351 374.053 248.464 374.106 249.63 374.106C250.081 374.106 250.531 374.053 250.982 373.947C251.432 373.841 251.843 373.55 252.214 373.073L252.691 373.391Z" fill="white" fill-opacity="0.5"/>
<path d="M271.972 381.06C273.535 381.06 274.926 381.338 276.145 381.894C277.364 382.424 278.384 383.152 279.206 384.079C280.054 384.98 280.69 386.026 281.114 387.219C281.564 388.411 281.79 389.642 281.79 390.914C281.79 392.132 281.591 393.311 281.193 394.45C280.796 395.589 280.186 396.596 279.365 397.47C278.543 398.344 277.523 399.046 276.304 399.576C275.085 400.106 273.668 400.371 272.051 400.371C270.382 400.371 268.925 400.093 267.679 399.536C266.434 398.98 265.4 398.252 264.579 397.351C263.784 396.45 263.188 395.43 262.79 394.291C262.393 393.126 262.194 391.934 262.194 390.715C262.194 389.417 262.419 388.185 262.87 387.02C263.32 385.854 263.956 384.834 264.778 383.96C265.626 383.06 266.646 382.358 267.838 381.854C269.057 381.324 270.435 381.06 271.972 381.06ZM272.012 398.821C273.125 398.821 274.105 398.596 274.953 398.146C275.801 397.695 276.503 397.099 277.06 396.358C277.616 395.616 278.027 394.781 278.292 393.854C278.583 392.901 278.729 391.921 278.729 390.914C278.729 389.96 278.57 388.993 278.252 388.013C277.961 387.033 277.523 386.159 276.94 385.391C276.357 384.596 275.642 383.96 274.794 383.483C273.946 382.98 272.966 382.728 271.853 382.728C270.687 382.728 269.68 382.967 268.832 383.444C268.01 383.894 267.321 384.49 266.765 385.232C266.235 385.974 265.838 386.821 265.573 387.775C265.308 388.728 265.175 389.682 265.175 390.636C265.175 391.616 265.321 392.596 265.612 393.576C265.93 394.53 266.381 395.404 266.964 396.199C267.547 396.967 268.262 397.603 269.11 398.106C269.958 398.583 270.925 398.821 272.012 398.821Z" fill="white" fill-opacity="0.5"/>
<path d="M311.249 400.371L304.77 382.331C304.478 381.536 304.227 380.874 304.015 380.344C303.829 379.815 303.657 379.364 303.498 378.993C303.365 378.623 303.246 378.318 303.14 378.079C303.034 377.841 302.941 377.616 302.862 377.404C302.57 376.742 302.266 376.238 301.948 375.894C301.656 375.523 301.351 375.258 301.033 375.099C300.715 374.914 300.384 374.808 300.04 374.781C299.722 374.755 299.391 374.742 299.046 374.742L298.847 374.583L298.768 373.868L298.808 373.709C298.993 373.709 299.258 373.722 299.603 373.748C299.974 373.775 300.358 373.801 300.755 373.828C301.153 373.854 301.537 373.881 301.908 373.907C302.279 373.934 302.557 373.947 302.743 373.947H304.094C304.279 373.947 304.584 373.934 305.008 373.907C305.432 373.881 305.869 373.854 306.32 373.828C306.797 373.801 307.247 373.775 307.671 373.748C308.095 373.722 308.4 373.709 308.585 373.709L308.665 373.868L308.546 374.583L308.347 374.742C307.579 374.742 306.982 374.834 306.558 375.02C306.134 375.179 305.922 375.642 305.922 376.411C305.922 377.02 306.121 377.881 306.519 378.993C306.943 380.079 307.459 381.457 308.069 383.126L310.772 390.437C311.275 391.815 311.712 393.06 312.083 394.172C312.481 395.258 312.838 396.199 313.156 396.993C313.448 396.225 313.792 395.311 314.19 394.252C314.614 393.192 315.091 391.921 315.621 390.437L318.324 383.126C318.933 381.457 319.437 380.079 319.834 378.993C320.258 377.881 320.47 377.02 320.47 376.411C320.47 375.642 320.258 375.179 319.834 375.02C319.41 374.834 318.814 374.742 318.045 374.742L317.847 374.583L317.767 373.868L317.847 373.709C318.032 373.709 318.324 373.722 318.721 373.748C319.119 373.775 319.529 373.801 319.953 373.828C320.377 373.854 320.788 373.881 321.185 373.907C321.583 373.934 321.874 373.947 322.06 373.947H322.815C323.001 373.947 323.266 373.934 323.61 373.907C323.981 373.881 324.365 373.854 324.763 373.828C325.16 373.801 325.544 373.775 325.915 373.748C326.286 373.722 326.565 373.709 326.75 373.709L326.83 373.868L326.71 374.583L326.512 374.742C326.167 374.742 325.836 374.755 325.518 374.781C325.2 374.808 324.882 374.914 324.564 375.099C324.246 375.258 323.928 375.523 323.61 375.894C323.319 376.238 323.014 376.742 322.696 377.404C322.616 377.616 322.497 377.881 322.338 378.199C322.206 378.517 321.967 379.113 321.623 379.987C321.278 380.861 320.775 382.119 320.112 383.762C319.476 385.377 318.615 387.589 317.529 390.397C317.158 391.324 316.773 392.291 316.376 393.298C316.005 394.278 315.634 395.219 315.263 396.119C314.919 396.993 314.614 397.775 314.349 398.464C314.084 399.152 313.898 399.642 313.792 399.934L311.726 400.371H311.249Z" fill="white" fill-opacity="0.5"/>
<path d="M339.86 400.093C339.674 400.093 339.396 400.079 339.025 400.053C338.654 400.026 338.257 400 337.833 399.973C337.409 399.973 337.011 399.96 336.64 399.934C336.269 399.934 335.991 399.934 335.806 399.934H335.249C335.064 399.934 334.772 399.934 334.375 399.934C334.004 399.96 333.606 399.973 333.182 399.973C332.785 400 332.387 400.026 331.99 400.053C331.619 400.079 331.341 400.093 331.155 400.093L331.115 399.934L331.155 399.377L331.314 399.219C331.738 399.219 332.149 399.205 332.546 399.179C332.97 399.126 333.288 398.993 333.5 398.781C333.712 398.596 333.845 398.358 333.898 398.066C333.977 397.775 334.043 397.364 334.096 396.834C334.123 396.411 334.149 395.987 334.176 395.563C334.202 395.113 334.216 394.411 334.216 393.457V388.57C334.216 388.013 334.216 387.55 334.216 387.179C334.216 386.781 334.202 386.437 334.176 386.146C334.176 385.854 334.163 385.589 334.136 385.351C334.136 385.113 334.123 384.861 334.096 384.596C334.043 384.305 333.964 384.053 333.858 383.841C333.752 383.603 333.659 383.444 333.58 383.364C333.315 383.046 332.984 382.861 332.586 382.808C332.189 382.728 331.778 382.689 331.354 382.689L331.195 382.53V381.974L331.354 381.854H332.069C332.52 381.854 333.09 381.854 333.779 381.854C334.467 381.828 335.064 381.775 335.567 381.695L336.958 381.497L337.197 381.854C337.144 381.96 337.091 382.146 337.038 382.411C337.011 382.676 336.985 382.967 336.958 383.285C336.958 383.576 336.945 383.868 336.919 384.159C336.919 384.45 336.919 384.675 336.919 384.834C336.919 385.046 336.905 385.258 336.879 385.47C336.879 385.656 336.879 385.881 336.879 386.146C336.879 386.411 336.866 386.728 336.839 387.099C336.839 387.47 336.839 387.947 336.839 388.53V392.98C336.839 393.563 336.839 394.04 336.839 394.411C336.866 394.781 336.879 395.099 336.879 395.364C336.905 395.629 336.919 395.881 336.919 396.119C336.945 396.331 336.972 396.57 336.998 396.834C337.051 397.391 337.104 397.815 337.157 398.106C337.237 398.371 337.382 398.596 337.594 398.781C337.806 398.967 338.098 399.086 338.469 399.139C338.866 399.192 339.264 399.219 339.661 399.219L339.86 399.417L339.939 399.934L339.86 400.093ZM333.182 374.861C333.182 374.331 333.354 373.881 333.699 373.51C334.07 373.113 334.52 372.914 335.05 372.914C335.58 372.914 336.031 373.113 336.402 373.51C336.799 373.881 336.998 374.331 336.998 374.861C336.998 375.391 336.799 375.841 336.402 376.212C336.031 376.556 335.58 376.728 335.05 376.728C334.52 376.728 334.07 376.556 333.699 376.212C333.354 375.841 333.182 375.391 333.182 374.861Z" fill="white" fill-opacity="0.5"/>
<path d="M355.376 389.404C356.489 389.642 357.377 389.973 358.039 390.397C358.728 390.795 359.258 391.232 359.629 391.709C360 392.185 360.238 392.675 360.344 393.179C360.477 393.656 360.543 394.106 360.543 394.53C360.543 395.377 360.371 396.159 360.026 396.874C359.682 397.589 359.178 398.212 358.516 398.742C357.88 399.245 357.098 399.642 356.171 399.934C355.243 400.225 354.197 400.371 353.031 400.371C351.732 400.371 350.514 400.225 349.374 399.934C348.261 399.616 347.373 399.285 346.711 398.94L346.632 398.583L347.228 394.49H348.142L348.261 394.649C348.261 395.921 348.659 396.927 349.454 397.669C350.249 398.384 351.401 398.742 352.912 398.742C353.813 398.742 354.568 398.636 355.177 398.424C355.787 398.212 356.264 397.934 356.608 397.589C356.979 397.245 357.244 396.874 357.403 396.477C357.562 396.079 357.642 395.695 357.642 395.324C357.642 395.086 357.628 394.821 357.602 394.53C357.575 394.212 357.469 393.907 357.284 393.616C357.098 393.298 356.82 393.007 356.449 392.742C356.078 392.45 355.548 392.212 354.859 392.026L351.043 391.073C350.169 390.861 349.454 390.583 348.897 390.238C348.341 389.894 347.903 389.523 347.585 389.126C347.267 388.702 347.042 388.265 346.91 387.815C346.777 387.338 346.711 386.861 346.711 386.384C346.711 385.51 346.883 384.742 347.228 384.079C347.572 383.391 348.036 382.834 348.619 382.411C349.228 381.96 349.931 381.629 350.725 381.417C351.52 381.179 352.382 381.06 353.309 381.06C354.555 381.06 355.694 381.219 356.727 381.536C357.787 381.854 358.609 382.172 359.192 382.49L359.311 382.848L358.874 385.907H358.039L357.88 385.788C357.88 385.179 357.708 384.675 357.363 384.278C357.045 383.854 356.648 383.523 356.171 383.285C355.694 383.02 355.19 382.834 354.66 382.728C354.13 382.622 353.667 382.57 353.269 382.57C351.944 382.57 350.99 382.901 350.408 383.563C349.825 384.225 349.533 384.967 349.533 385.788C349.533 386.397 349.732 386.98 350.129 387.536C350.553 388.066 351.361 388.477 352.554 388.768L355.376 389.404Z" fill="white" fill-opacity="0.5"/>
<path d="M382.979 396.517C382.29 397.629 381.402 398.556 380.316 399.298C379.256 400.013 377.944 400.371 376.381 400.371C375.612 400.371 374.87 400.278 374.155 400.093C373.466 399.934 372.817 399.656 372.207 399.258C371.624 398.861 371.121 398.331 370.697 397.669C370.273 397.007 369.968 396.172 369.782 395.166C369.65 394.477 369.584 393.762 369.584 393.02C369.61 392.252 369.61 391.483 369.584 390.715C369.584 390.371 369.571 389.907 369.544 389.324C369.544 388.715 369.544 388.106 369.544 387.497C369.544 386.861 369.544 386.278 369.544 385.748C369.544 385.219 369.544 384.834 369.544 384.596C369.544 384.305 369.478 384.053 369.345 383.841C369.213 383.603 369.107 383.43 369.027 383.324C368.762 383.033 368.431 382.861 368.034 382.808C367.636 382.728 367.225 382.689 366.801 382.689L366.682 382.53V381.974L366.801 381.854H367.517C367.967 381.854 368.537 381.854 369.226 381.854C369.915 381.828 370.511 381.775 371.015 381.695L372.406 381.497L372.644 381.854C372.591 381.96 372.552 382.159 372.525 382.45C372.499 382.715 372.472 383.007 372.446 383.324C372.419 383.642 372.406 383.947 372.406 384.238C372.406 384.53 372.406 384.755 372.406 384.914C372.406 385.364 372.393 385.868 372.366 386.424C372.366 386.954 372.353 387.497 372.326 388.053C372.326 388.609 372.313 389.139 372.287 389.642C372.287 390.146 372.287 390.57 372.287 390.914C372.287 391.497 372.3 392.159 372.326 392.901C372.379 393.616 372.472 394.238 372.605 394.768C372.87 396.013 373.413 396.94 374.234 397.55C375.056 398.159 376.01 398.464 377.096 398.464C377.917 398.464 378.673 398.305 379.362 397.987C380.051 397.642 380.647 397.232 381.15 396.755C381.68 396.278 382.104 395.775 382.422 395.245C382.767 394.689 382.992 394.185 383.098 393.735V388.57C383.098 388.013 383.085 387.55 383.058 387.179C383.058 386.781 383.045 386.437 383.018 386.146C383.018 385.854 383.005 385.589 382.979 385.351C382.979 385.113 382.965 384.861 382.939 384.596C382.886 384.305 382.806 384.053 382.7 383.841C382.621 383.603 382.541 383.444 382.462 383.364C382.197 383.046 381.866 382.861 381.468 382.808C381.071 382.728 380.66 382.689 380.236 382.689L380.077 382.53V381.974L380.236 381.854H380.952C381.402 381.854 381.972 381.854 382.661 381.854C383.35 381.828 383.933 381.775 384.41 381.695L385.801 381.497L386.039 381.854C385.986 381.96 385.946 382.159 385.92 382.45C385.893 382.715 385.867 383.007 385.84 383.324C385.814 383.642 385.801 383.947 385.801 384.238C385.801 384.53 385.801 384.755 385.801 384.914C385.801 385.126 385.787 385.324 385.761 385.51C385.761 385.695 385.761 385.921 385.761 386.185C385.761 386.45 385.748 386.768 385.721 387.139C385.721 387.483 385.721 387.947 385.721 388.53V392.98C385.721 393.563 385.721 394.04 385.721 394.411C385.748 394.781 385.761 395.099 385.761 395.364C385.787 395.629 385.801 395.881 385.801 396.119C385.827 396.331 385.84 396.57 385.84 396.834C385.893 397.444 385.96 397.894 386.039 398.185C386.119 398.45 386.251 398.649 386.437 398.781C386.649 398.993 386.953 399.126 387.351 399.179C387.775 399.205 388.199 399.219 388.623 399.219L388.782 399.377L388.861 399.934L388.782 400.093C388.305 400.04 387.788 400 387.232 399.973C386.675 399.947 386.132 399.934 385.602 399.934C384.595 399.934 383.681 399.974 382.859 400.053L382.621 399.656C382.7 399.311 382.78 398.861 382.859 398.305C382.965 397.748 383.045 397.179 383.098 396.596L382.979 396.517Z" fill="white" fill-opacity="0.5"/>
<path d="M406.415 399.656C406.495 399.364 406.548 398.927 406.574 398.344C406.627 397.762 406.693 397.219 406.773 396.715L406.733 396.596C406.388 397.073 405.978 397.536 405.501 397.987C405.024 398.437 404.494 398.848 403.911 399.219C403.354 399.563 402.745 399.841 402.082 400.053C401.447 400.265 400.771 400.371 400.055 400.371C399.234 400.371 398.505 400.225 397.869 399.934C397.233 399.642 396.703 399.258 396.279 398.781C395.855 398.305 395.537 397.748 395.325 397.113C395.113 396.477 395.008 395.815 395.008 395.126C395.008 394.146 395.233 393.298 395.683 392.583C396.134 391.841 396.73 391.232 397.472 390.755C398.161 390.331 398.969 389.987 399.896 389.722C400.85 389.457 401.765 389.272 402.639 389.166C403.54 389.033 404.348 388.954 405.064 388.927C405.779 388.874 406.256 388.848 406.494 388.848H407.051C407.024 387.868 406.971 387.099 406.892 386.543C406.812 385.96 406.706 385.483 406.574 385.113C406.283 384.318 405.779 383.748 405.064 383.404C404.348 383.033 403.487 382.848 402.48 382.848C402.056 382.848 401.592 382.887 401.089 382.967C400.612 383.046 400.148 383.192 399.698 383.404C399.274 383.616 398.903 383.921 398.585 384.318C398.267 384.689 398.081 385.179 398.028 385.788L397.869 385.907H396.995L396.637 382.967L396.756 382.728C396.889 382.57 397.167 382.397 397.591 382.212C398.015 382.026 398.505 381.854 399.062 381.695C399.645 381.51 400.281 381.364 400.97 381.258C401.685 381.126 402.387 381.06 403.076 381.06C404.03 381.06 404.918 381.192 405.739 381.457C406.561 381.695 407.263 382.066 407.846 382.57C408.455 383.073 408.932 383.709 409.277 384.477C409.621 385.219 409.794 386.093 409.794 387.099C409.794 388.212 409.78 389.205 409.754 390.079C409.754 390.927 409.741 391.722 409.714 392.464C409.688 393.179 409.661 393.894 409.635 394.609C409.635 395.298 409.635 396.04 409.635 396.834C409.688 397.444 409.754 397.894 409.833 398.185C409.913 398.45 410.045 398.649 410.231 398.781C410.443 398.993 410.747 399.126 411.145 399.179C411.569 399.205 411.993 399.219 412.417 399.219L412.576 399.377L412.616 399.934L412.576 400.093C412.099 400.04 411.582 400 411.026 399.973C410.469 399.947 409.926 399.934 409.396 399.934C408.389 399.934 407.475 399.974 406.653 400.053L406.415 399.656ZM406.415 395.364C406.495 395.232 406.574 395.073 406.653 394.887C406.759 394.702 406.826 394.477 406.852 394.212L407.051 390.238H406.693C405.633 390.238 404.573 390.305 403.513 390.437C402.453 390.543 401.5 390.768 400.652 391.113C399.83 391.457 399.154 391.934 398.625 392.543C398.095 393.152 397.83 393.934 397.83 394.887C397.83 395.894 398.121 396.702 398.704 397.311C399.287 397.894 400.042 398.185 400.97 398.185C401.526 398.185 402.083 398.093 402.639 397.907C403.195 397.722 403.712 397.483 404.189 397.192C404.693 396.901 405.13 396.596 405.501 396.278C405.898 395.96 406.203 395.656 406.415 395.364Z" fill="white" fill-opacity="0.5"/>
<path d="M418.104 371.046L418.263 370.887H418.979C419.429 370.887 419.999 370.887 420.688 370.887C421.377 370.861 421.973 370.808 422.477 370.728L423.908 370.53L424.146 370.887C424.093 370.993 424.053 371.192 424.027 371.483C424 371.748 423.974 372.04 423.947 372.358C423.921 372.675 423.894 372.98 423.868 373.272C423.868 373.563 423.868 373.788 423.868 373.947C423.841 374.371 423.815 374.768 423.788 375.139C423.788 375.51 423.775 375.947 423.749 376.45C423.749 376.954 423.749 377.563 423.749 378.278C423.749 378.993 423.749 379.907 423.749 381.02V389.682C423.749 390.795 423.749 391.709 423.749 392.424C423.775 393.139 423.788 393.748 423.788 394.252C423.815 394.755 423.828 395.192 423.828 395.563C423.855 395.934 423.881 396.358 423.908 396.834C423.961 397.391 424.014 397.815 424.067 398.106C424.146 398.371 424.292 398.596 424.504 398.781C424.716 398.967 425.007 399.086 425.378 399.139C425.776 399.192 426.173 399.219 426.571 399.219L426.769 399.417L426.849 399.934L426.769 400.093C426.584 400.093 426.306 400.079 425.935 400.053C425.564 400.026 425.166 400 424.742 399.973C424.318 399.973 423.921 399.96 423.55 399.934C423.179 399.934 422.901 399.934 422.715 399.934H422.159C421.973 399.934 421.682 399.934 421.284 399.934C420.913 399.96 420.516 399.973 420.092 399.973C419.694 400 419.297 400.026 418.899 400.053C418.528 400.079 418.25 400.093 418.065 400.093L418.025 399.934L418.065 399.377L418.224 399.219C418.648 399.219 419.058 399.205 419.456 399.179C419.88 399.126 420.198 398.993 420.41 398.781C420.622 398.596 420.754 398.358 420.807 398.066C420.887 397.775 420.953 397.364 421.006 396.834C421.032 396.49 421.046 396.146 421.046 395.801C421.072 395.457 421.085 395.06 421.085 394.609C421.112 394.132 421.125 393.589 421.125 392.98C421.125 392.344 421.125 391.563 421.125 390.636V381.099C421.125 380.013 421.125 379.099 421.125 378.358C421.125 377.589 421.112 376.927 421.085 376.371C421.085 375.815 421.072 375.324 421.046 374.901C421.046 374.477 421.032 374.053 421.006 373.629C420.979 373.338 420.9 373.086 420.768 372.874C420.662 372.662 420.569 372.503 420.489 372.397C420.224 372.106 419.893 371.921 419.496 371.841C419.098 371.762 418.687 371.722 418.263 371.722L418.104 371.563V371.046Z" fill="white" fill-opacity="0.5"/>
</svg>
