<svg width="180" height="34" viewBox="0 0 180 34" fill="none" xmlns="http://www.w3.org/2000/svg">
<path d="M47.0593 27.2111C46.9367 27.2111 46.7353 27.2023 46.455 27.1848C46.1748 27.1673 45.8858 27.1498 45.588 27.1322C45.2902 27.1147 45.0012 27.0972 44.721 27.0797C44.4407 27.0622 44.2392 27.0534 44.1166 27.0534H42.5664C42.4438 27.0534 42.2424 27.0622 41.9622 27.0797C41.6819 27.0972 41.3929 27.1147 41.0951 27.1322C40.7973 27.1498 40.5083 27.1673 40.228 27.1848C39.9478 27.2023 39.7464 27.2111 39.6237 27.2111L39.5712 27.106L39.65 26.1076L39.7814 26.0025C39.9916 26.0025 40.2368 25.9937 40.517 25.9762C40.7973 25.9412 41.0163 25.8711 41.1739 25.766C41.314 25.6609 41.4454 25.4945 41.568 25.2668C41.6906 25.0391 41.7782 24.6976 41.8308 24.2422C41.8308 24.1196 41.8308 23.9795 41.8308 23.8218C41.8483 23.6467 41.8571 23.4365 41.8571 23.1913C41.8746 22.9461 41.8833 22.6483 41.8833 22.298C41.8833 21.9477 41.8833 21.5098 41.8833 20.9844V15.2043C41.8833 14.854 41.8833 14.4599 41.8833 14.022C41.8833 13.5666 41.8658 13.1199 41.8308 12.682C41.7957 12.2266 41.7082 11.8939 41.568 11.6837C41.4454 11.456 41.314 11.2896 41.1739 11.1845C41.0163 11.0444 40.8499 10.9655 40.6747 10.948C40.5171 10.9305 40.2193 10.9217 39.7814 10.9217L39.65 10.8167L39.5712 9.81828L39.6237 9.71318C39.7464 9.71318 39.904 9.72194 40.0967 9.73945C40.3069 9.75697 40.5171 9.77448 40.7273 9.79199C40.955 9.80951 41.1827 9.82703 41.4104 9.84455C41.6381 9.86206 41.8483 9.87083 42.041 9.87083H44.0378C44.2305 9.87083 44.4494 9.87083 44.6947 9.87083C44.9399 9.85331 45.1851 9.84455 45.4303 9.84455C45.6931 9.84455 45.9296 9.84455 46.1397 9.84455C46.3499 9.82703 46.5251 9.81828 46.6652 9.81828C47.8388 9.81828 48.8285 9.94088 49.6342 10.1861C50.4575 10.4138 51.1231 10.7378 51.631 11.1582C52.139 11.5786 52.5069 12.0865 52.7346 12.682C52.9798 13.2601 53.1024 13.8994 53.1024 14.6C53.1024 15.7735 52.8922 16.7369 52.4718 17.49C52.0514 18.2432 51.5084 18.8387 50.8428 19.2766C50.1947 19.7145 49.4591 20.021 48.6358 20.1962C47.8301 20.3538 47.0418 20.4326 46.2711 20.4326H44.7998C44.7998 20.7829 44.7998 21.1507 44.7998 21.5361C44.7998 21.9214 44.7998 22.298 44.7998 22.6658C44.8173 23.0161 44.826 23.3314 44.826 23.6116C44.8436 23.8919 44.8611 24.1021 44.8786 24.2422C44.9136 24.7501 45.0012 25.1092 45.1413 25.3194C45.2815 25.512 45.4041 25.6522 45.5092 25.7398C45.6668 25.8799 45.8245 25.9587 45.9821 25.9762C46.1573 25.9937 46.4725 26.0025 46.928 26.0025L47.0331 26.1076L47.1119 27.106L47.0593 27.2111ZM46.1397 18.4884C47.6111 18.4884 48.6621 18.1556 49.2926 17.49C49.9232 16.8244 50.2385 15.9049 50.2385 14.7314C50.2385 13.7855 49.8707 13.0849 49.135 12.6295C48.4168 12.1566 47.4272 11.9201 46.166 11.9201H44.9311C44.8786 12.6908 44.8436 13.2688 44.826 13.6542C44.8085 14.022 44.7998 14.3548 44.7998 14.6525V17.5163C44.7998 17.744 44.8085 17.9279 44.826 18.068C44.8436 18.1906 44.8873 18.287 44.9574 18.357C45.0275 18.4096 45.1238 18.4446 45.2464 18.4621C45.3866 18.4796 45.5705 18.4884 45.7982 18.4884H46.1397Z" fill="#0099DC"/>
<path d="M58.9827 17.7528C59.1578 17.42 59.3505 17.0697 59.5607 16.7018C59.7884 16.334 60.0424 15.9925 60.3227 15.6772C60.6029 15.3619 60.9182 15.0992 61.2685 14.889C61.6364 14.6788 62.048 14.5737 62.5034 14.5737C62.6436 14.5737 62.8099 14.5912 63.0026 14.6263C63.2128 14.6438 63.4143 14.6788 63.6069 14.7314C63.8171 14.7839 64.0186 14.8452 64.2112 14.9153C64.4039 14.9853 64.5528 15.0642 64.6579 15.1517L64.8418 15.3094L64.5265 18.1469H63.3967C63.3442 17.9367 63.2041 17.7265 62.9764 17.5163C62.7662 17.2886 62.4333 17.1747 61.9779 17.1747C61.5751 17.1747 61.2072 17.2798 60.8744 17.49C60.5416 17.6827 60.2526 17.9279 60.0074 18.2257C59.7621 18.5234 59.5695 18.8475 59.4293 19.1978C59.2892 19.5306 59.2192 19.8371 59.2192 20.1173V21.9302C59.2192 22.5958 59.2192 23.0949 59.2192 23.4277C59.2367 23.7605 59.2542 24.0495 59.2717 24.2947C59.3067 24.6801 59.3505 24.9953 59.4031 25.2406C59.4731 25.4683 59.5782 25.6434 59.7184 25.766C59.7884 25.8361 59.8935 25.8974 60.0336 25.9499C60.1913 25.985 60.3489 26.0112 60.5066 26.0288C60.6642 26.0463 60.8131 26.055 60.9532 26.055C61.1109 26.055 61.2335 26.055 61.3211 26.055L61.4524 26.1864L61.505 27.0534L61.4524 27.1585C61.3473 27.1585 61.1722 27.1498 60.927 27.1322C60.6817 27.1147 60.419 27.0972 60.1387 27.0797C59.8585 27.0797 59.5957 27.0709 59.3505 27.0534C59.1053 27.0534 58.9301 27.0534 58.825 27.0534H57.1435C57.0209 27.0534 56.8282 27.0534 56.5655 27.0534C56.3202 27.0709 56.0575 27.0797 55.7772 27.0797C55.497 27.0972 55.2255 27.1147 54.9627 27.1322C54.7175 27.1498 54.5336 27.1585 54.411 27.1585L54.3847 27.0534L54.4373 26.1601L54.5161 26.055C54.8138 26.055 55.0941 26.0463 55.3568 26.0288C55.6196 25.9937 55.821 25.9062 55.9611 25.766C56.1013 25.6434 56.1976 25.4858 56.2501 25.2931C56.3202 25.1004 56.3728 24.7676 56.4078 24.2947C56.4253 24.0845 56.4341 23.8043 56.4341 23.454C56.4341 23.1037 56.4341 22.6133 56.4341 21.9827V20.0648C56.4341 19.697 56.4341 19.3905 56.4341 19.1452C56.4341 18.8825 56.4253 18.6548 56.4078 18.4621C56.4078 18.2695 56.3991 18.0943 56.3815 17.9367C56.3815 17.779 56.3728 17.6126 56.3553 17.4375C56.3202 17.2623 56.2677 17.0959 56.1976 16.9383C56.1275 16.7807 56.0662 16.6756 56.0137 16.623C55.8385 16.3953 55.6196 16.2639 55.3568 16.2289C55.0941 16.1939 54.8226 16.1764 54.5423 16.1764L54.4373 16.0713V15.178L54.5423 15.0992H55.0153C55.4006 15.0992 55.8998 15.0992 56.5129 15.0992C57.126 15.0817 57.6602 15.0466 58.1156 14.9941L59.0352 14.8627L59.1929 15.3619C59.0878 15.6947 59.009 16.0713 58.9564 16.4917C58.9214 16.912 58.9039 17.3236 58.9039 17.7265L58.9827 17.7528Z" fill="#0099DC"/>
<path d="M72.566 27.1585C72.4434 27.1585 72.2595 27.1498 72.0142 27.1322C71.769 27.1147 71.5063 27.0972 71.226 27.0797C70.9458 27.0797 70.683 27.0709 70.4378 27.0534C70.1926 27.0534 70.0086 27.0534 69.886 27.0534H68.4672C68.3446 27.0534 68.1519 27.0534 67.8892 27.0534C67.644 27.0709 67.3812 27.0797 67.101 27.0797C66.8382 27.0972 66.5755 27.1147 66.3127 27.1322C66.0675 27.1498 65.8836 27.1585 65.761 27.1585L65.7347 27.0534L65.7873 26.1601L65.8661 26.055C66.1288 26.055 66.4003 26.0463 66.6806 26.0288C66.9609 25.9937 67.171 25.9062 67.3112 25.766C67.4338 25.6434 67.5214 25.4858 67.5739 25.2931C67.6265 25.1004 67.6702 24.8289 67.7053 24.4786C67.7228 24.356 67.7316 24.2334 67.7316 24.1108C67.7491 23.9882 67.7578 23.8568 67.7578 23.7167C67.7753 23.5766 67.7841 23.4102 67.7841 23.2175C67.7841 23.0249 67.7841 22.7884 67.7841 22.5082V19.5393C67.7841 19.2065 67.7841 18.9438 67.7841 18.7511C67.7841 18.5409 67.7753 18.3658 67.7578 18.2257C67.7578 18.0855 67.7491 17.9629 67.7316 17.8579C67.7316 17.7352 67.7228 17.5951 67.7053 17.4375C67.6702 17.2623 67.6177 17.0959 67.5476 16.9383C67.4776 16.7807 67.4163 16.6756 67.3637 16.623C67.1886 16.3953 66.9696 16.2639 66.7069 16.2289C66.4441 16.1939 66.1726 16.1764 65.8924 16.1764L65.7873 16.0713V15.178L65.8924 15.0992H67.2323C67.6352 15.0992 68.0644 15.0992 68.5198 15.0992C68.9752 15.0817 69.3781 15.0466 69.7284 14.9941L70.648 14.8627L70.8056 15.3619C70.7706 15.432 70.7356 15.5458 70.7005 15.7035C70.683 15.8436 70.6655 16.0012 70.648 16.1764C70.648 16.334 70.6392 16.5004 70.6217 16.6756C70.6217 16.8332 70.6217 16.9646 70.6217 17.0697C70.6217 17.2098 70.613 17.3411 70.5954 17.4638C70.5954 17.5688 70.5954 17.7002 70.5954 17.8579C70.5954 17.998 70.5867 18.1819 70.5692 18.4096C70.5692 18.6373 70.5692 18.9175 70.5692 19.2503V22.1929C70.5692 22.5432 70.5692 22.8322 70.5692 23.0599C70.5867 23.2701 70.5954 23.454 70.5954 23.6116C70.613 23.7693 70.6217 23.9182 70.6217 24.0583C70.6392 24.1809 70.6567 24.321 70.6743 24.4786C70.7093 24.8465 70.7443 25.1267 70.7794 25.3194C70.8319 25.4945 70.9282 25.6434 71.0684 25.766C71.2085 25.9062 71.4012 25.9937 71.6464 26.0288C71.9092 26.0463 72.1719 26.055 72.4346 26.055L72.566 26.1864L72.6185 27.0534L72.566 27.1585ZM67.2323 10.948C67.2323 10.7378 67.2761 10.5277 67.3637 10.3175C67.4513 10.1073 67.5739 9.92336 67.7316 9.76572C67.8892 9.59057 68.0644 9.45921 68.257 9.37164C68.4672 9.26654 68.6862 9.21399 68.9139 9.21399C69.3518 9.21399 69.7459 9.3979 70.0962 9.76572C70.4641 10.116 70.648 10.5101 70.648 10.948C70.648 11.1757 70.5954 11.3947 70.4903 11.6049C70.4028 11.7975 70.2714 11.9727 70.0962 12.1303C69.9386 12.288 69.7547 12.4106 69.5445 12.4981C69.3343 12.5857 69.1241 12.6295 68.9139 12.6295C68.4585 12.6295 68.0644 12.4631 67.7316 12.1303C67.3988 11.7975 67.2323 11.4034 67.2323 10.948Z" fill="#0099DC"/>
<path d="M78.7958 17.2536C79.1987 16.4829 79.7505 15.8436 80.4511 15.3356C81.1518 14.8277 81.975 14.5737 82.9209 14.5737C83.4639 14.5737 83.9981 14.6438 84.5236 14.7839C85.0491 14.924 85.522 15.143 85.9424 15.4407C86.3803 15.7385 86.7394 16.1238 87.0197 16.5967C87.3174 17.0521 87.5101 17.5951 87.5977 18.2257C87.6502 18.6811 87.6765 19.1627 87.6765 19.6707C87.694 20.1786 87.7028 20.6866 87.7028 21.1945C87.7203 21.7901 87.7291 22.3418 87.7291 22.8497C87.7291 23.3402 87.7291 23.8831 87.7291 24.4786C87.7291 24.8815 87.7728 25.188 87.8604 25.3982C87.9655 25.5909 88.0881 25.7222 88.2283 25.7923C88.4209 25.8974 88.6224 25.9675 88.8326 26.0025C89.0603 26.0375 89.3143 26.055 89.5945 26.055L89.6734 26.1601L89.7259 27.0534L89.6734 27.1585C89.3055 27.1235 88.8939 27.0972 88.4385 27.0797C88.0006 27.0622 87.5714 27.0534 87.151 27.0534C86.7306 27.0534 86.3103 27.0534 85.8899 27.0534C85.4695 27.0709 85.0754 27.0972 84.7075 27.1322L84.5236 26.6068C84.5762 26.3791 84.6199 26.0375 84.655 25.5821C84.7075 25.1267 84.7426 24.7589 84.7601 24.4786C84.7951 23.8131 84.8214 23.1913 84.8389 22.6133C84.8564 22.0353 84.8652 21.5186 84.8652 21.0632C84.8652 20.6603 84.8564 20.2224 84.8389 19.7495C84.8214 19.2766 84.7601 18.865 84.655 18.5147C84.5149 17.9542 84.2258 17.5426 83.7879 17.2798C83.3675 16.9996 82.8771 16.8595 82.3166 16.8595C81.7911 16.8595 81.3094 16.9558 80.8715 17.1485C80.4336 17.3411 80.057 17.5776 79.7417 17.8579C79.4439 18.1206 79.2075 18.4008 79.0323 18.6986C78.8572 18.9963 78.7696 19.2591 78.7696 19.4868V22.1929C78.7696 22.5432 78.7696 22.8322 78.7696 23.0599C78.7696 23.2701 78.7696 23.454 78.7696 23.6116C78.7871 23.7693 78.7958 23.9182 78.7958 24.0583C78.8134 24.1809 78.8309 24.321 78.8484 24.4786C78.8834 24.8465 78.9535 25.1267 79.0586 25.3194C79.1812 25.4945 79.3126 25.6434 79.4527 25.766C79.5928 25.9062 79.7592 25.9937 79.9519 26.0288C80.1446 26.0463 80.3723 26.055 80.635 26.055L80.7664 26.1864L80.819 27.0534L80.7664 27.1585C80.6438 27.1585 80.4599 27.1498 80.2147 27.1322C79.9694 27.1147 79.7067 27.0972 79.4264 27.0797C79.1462 27.0797 78.8834 27.0709 78.6382 27.0534C78.393 27.0534 78.2091 27.0534 78.0865 27.0534H76.6414C76.5188 27.0534 76.3261 27.0534 76.0633 27.0534C75.8181 27.0709 75.5554 27.0797 75.2751 27.0797C75.0124 27.0972 74.7496 27.1147 74.4869 27.1322C74.2417 27.1498 74.0577 27.1585 73.9351 27.1585L73.9089 27.0534L73.9614 26.1601L74.0402 26.055C74.3205 26.055 74.5657 26.0463 74.7759 26.0288C75.0036 25.9937 75.1875 25.9062 75.3277 25.766C75.4503 25.6434 75.5641 25.4858 75.6692 25.2931C75.7743 25.1004 75.8444 24.8289 75.8794 24.4786C75.8969 24.356 75.9057 24.2334 75.9057 24.1108C75.9232 23.9882 75.932 23.8568 75.932 23.7167C75.9495 23.5766 75.9582 23.4102 75.9582 23.2175C75.9582 23.0249 75.9582 22.7884 75.9582 22.5082V19.8021C75.9582 19.4693 75.9582 19.189 75.9582 18.9613C75.9582 18.7336 75.9495 18.5322 75.932 18.357C75.932 18.1819 75.9232 18.0242 75.9057 17.8841C75.9057 17.744 75.8969 17.5951 75.8794 17.4375C75.8444 17.2623 75.7918 17.0959 75.7218 16.9383C75.6517 16.7807 75.5904 16.6756 75.5378 16.623C75.3627 16.3953 75.1437 16.2639 74.881 16.2289C74.6183 16.1939 74.3468 16.1764 74.0665 16.1764L73.9614 16.0713V15.178L74.0665 15.0992H75.4065C75.8094 15.0992 76.2385 15.0992 76.6939 15.0992C77.1668 15.0817 77.5785 15.0466 77.9288 14.9941L78.8484 14.8627L79.0061 15.3619C78.8659 15.5546 78.7783 15.8261 78.7433 16.1764C78.7258 16.5092 78.717 16.8507 78.717 17.201L78.7958 17.2536Z" fill="#0099DC"/>
<path d="M96.8901 16.5442H94C94 17.5601 93.9912 18.5059 93.9737 19.3817C93.9737 20.2399 93.9737 20.9931 93.9737 21.6412C93.9737 22.2717 93.9649 22.7884 93.9474 23.1913C93.9474 23.5941 93.9474 23.8393 93.9474 23.9269C93.9474 24.61 94.0788 25.0654 94.3415 25.2931C94.6043 25.5208 94.9108 25.6347 95.2611 25.6347C95.5238 25.6347 95.8216 25.6084 96.1544 25.5558C96.4872 25.5033 96.7675 25.4332 96.9952 25.3457L97.1528 25.6347L96.8901 26.5017C96.4172 26.7644 95.9267 26.9658 95.4188 27.106C94.9283 27.2636 94.4729 27.3424 94.0525 27.3424C92.984 27.3424 92.2221 27.0972 91.7667 26.6068C91.3112 26.1163 91.0835 25.4858 91.0835 24.7151C91.0835 24.5575 91.0923 24.2509 91.1098 23.7955C91.1273 23.3226 91.1448 22.7359 91.1623 22.0353C91.1799 21.3171 91.1974 20.4939 91.2149 19.5656C91.2324 18.6373 91.2412 17.6302 91.2412 16.5442H89.8749L89.7698 16.4128V15.2568L89.8749 15.1517L91.2412 14.7839C91.2412 14.2234 91.2236 13.6542 91.1886 13.0761C91.1711 12.4806 91.1448 11.9026 91.1098 11.3421L91.2937 11.1845L91.6615 11.1582C91.7842 11.1582 91.9506 11.1494 92.1608 11.1319C92.3885 11.1144 92.625 11.0969 92.8702 11.0794C93.1154 11.0444 93.3431 11.0093 93.5533 10.9743C93.781 10.9393 93.9474 10.9042 94.0525 10.8692L94.289 10.9743C94.2014 11.4122 94.1313 11.9989 94.0788 12.7346C94.0262 13.4527 94 14.1358 94 14.7839L96.8901 14.6263L97.0215 14.7314V16.4128L96.8901 16.5442Z" fill="#0099DC"/>
<path d="M106.189 9.58182C107.538 9.58182 108.737 9.81828 109.788 10.2912C110.839 10.7641 111.724 11.4034 112.442 12.2091C113.16 13.0148 113.703 13.9519 114.071 15.0204C114.456 16.0888 114.649 17.2098 114.649 18.3833C114.649 19.5043 114.483 20.5902 114.15 21.6412C113.817 22.6746 113.318 23.6029 112.652 24.4261C112.004 25.2318 111.198 25.8974 110.235 26.4229C109.272 26.9483 108.159 27.2461 106.898 27.3161C107.792 27.3337 108.58 27.4388 109.263 27.6314C109.946 27.8416 110.585 28.0606 111.181 28.2883C111.794 28.5335 112.398 28.7524 112.994 28.9451C113.589 29.1377 114.229 29.2341 114.912 29.2341C115.157 29.2341 115.446 29.199 115.779 29.129C116.129 29.0764 116.497 28.9363 116.882 28.7086L116.961 28.7612L117.329 29.4968L117.303 29.6019C116.9 30.1099 116.41 30.539 115.832 30.8893C115.253 31.2396 114.605 31.4147 113.887 31.4147C113.292 31.4147 112.679 31.2746 112.048 30.9944C111.435 30.7316 110.787 30.4339 110.104 30.1011C109.421 29.7858 108.711 29.4881 107.976 29.2078C107.24 28.9451 106.469 28.8137 105.663 28.8137C104.98 28.8137 104.315 28.9276 103.667 29.1553C103.036 29.383 102.572 29.6282 102.274 29.8909L102.195 29.8646L101.906 28.84L101.932 28.7612C102.318 28.4984 102.835 28.2094 103.483 27.8942C104.131 27.5789 104.831 27.395 105.585 27.3424C104.288 27.3249 103.15 27.0797 102.169 26.6068C101.188 26.1339 100.365 25.5033 99.6992 24.7151C99.0511 23.9094 98.5606 22.9811 98.2278 21.9302C97.895 20.8792 97.7286 19.767 97.7286 18.5935C97.7286 17.3499 97.9213 16.1851 98.3067 15.0992C98.692 13.9957 99.2437 13.0411 99.9619 12.2354C100.68 11.4122 101.565 10.7641 102.616 10.2912C103.667 9.81828 104.858 9.58182 106.189 9.58182ZM106.163 25.1617C107.021 25.1617 107.783 24.9866 108.448 24.6363C109.132 24.2685 109.701 23.7868 110.156 23.1913C110.612 22.5782 110.962 21.8689 111.207 21.0632C111.452 20.2399 111.575 19.3642 111.575 18.4359C111.575 17.49 111.444 16.6143 111.181 15.8085C110.936 14.9853 110.568 14.276 110.077 13.6804C109.605 13.0849 109.026 12.6208 108.343 12.288C107.66 11.9377 106.89 11.7625 106.031 11.7625C105.19 11.7625 104.446 11.9289 103.798 12.2617C103.15 12.5945 102.607 13.0586 102.169 13.6542C101.731 14.2497 101.398 14.9591 101.171 15.7823C100.943 16.588 100.829 17.4637 100.829 18.4096C100.829 19.443 100.96 20.3801 101.223 21.2208C101.486 22.044 101.854 22.7534 102.327 23.3489C102.8 23.9269 103.36 24.3735 104.008 24.6888C104.656 25.0041 105.374 25.1617 106.163 25.1617Z" fill="white"/>
<path d="M125.824 24.7939C125.351 25.5471 124.764 26.1601 124.063 26.633C123.363 27.106 122.478 27.3424 121.41 27.3424C120.919 27.3424 120.438 27.2811 119.965 27.1585C119.509 27.0359 119.089 26.8432 118.703 26.5805C118.336 26.3178 118.012 25.9762 117.731 25.5558C117.451 25.118 117.25 24.5925 117.127 23.9795C117.092 23.8218 117.057 23.6467 117.022 23.454C117.004 23.2613 116.987 23.0161 116.969 22.7184C116.969 22.4031 116.961 22.0265 116.943 21.5886C116.943 21.1332 116.943 20.5727 116.943 19.9071V17.5426C116.943 17.3499 116.899 17.1572 116.812 16.9646C116.724 16.7719 116.654 16.6493 116.601 16.5967C116.426 16.3866 116.207 16.2639 115.945 16.2289C115.682 16.1939 115.41 16.1764 115.13 16.1764L115.051 16.0713V15.178L115.13 15.0992H116.418C116.82 15.0992 117.25 15.0992 117.705 15.0992C118.16 15.0817 118.563 15.0466 118.914 14.9941L119.833 14.8627L119.991 15.3619C119.956 15.432 119.93 15.5633 119.912 15.756C119.895 15.9312 119.877 16.1238 119.86 16.334C119.842 16.5442 119.833 16.7456 119.833 16.9383C119.833 17.131 119.833 17.2798 119.833 17.3849C119.833 17.6126 119.825 17.8929 119.807 18.2257C119.807 18.5409 119.798 18.8737 119.781 19.2241C119.781 19.5568 119.772 19.8809 119.754 20.1962C119.754 20.5114 119.754 20.7742 119.754 20.9844C119.754 21.4398 119.772 21.9039 119.807 22.3768C119.842 22.8322 119.912 23.2526 120.017 23.6379C120.192 24.251 120.455 24.7063 120.805 25.0041C121.173 25.2844 121.681 25.4245 122.329 25.4245C122.855 25.4245 123.319 25.3369 123.722 25.1617C124.142 24.9866 124.501 24.7764 124.799 24.5312C125.097 24.286 125.342 24.0233 125.535 23.743C125.727 23.4452 125.85 23.1825 125.903 22.9548V20.3275C125.903 19.5218 125.885 18.9 125.85 18.4621C125.833 18.0242 125.806 17.6827 125.771 17.4375C125.736 17.2098 125.684 17.0259 125.614 16.8857C125.561 16.7456 125.509 16.6493 125.456 16.5967C125.263 16.3866 125.018 16.2639 124.72 16.2289C124.423 16.1939 124.186 16.1764 124.011 16.1764L123.906 16.0713V15.178L124.011 15.0992H124.484C124.659 15.0992 124.887 15.0992 125.167 15.0992C125.465 15.0992 125.771 15.0992 126.087 15.0992C126.402 15.0817 126.708 15.0729 127.006 15.0729C127.304 15.0554 127.558 15.0291 127.768 14.9941L128.688 14.8627L128.845 15.3619C128.758 15.8699 128.696 16.5354 128.661 17.3587C128.644 17.7965 128.626 18.1556 128.609 18.4359C128.609 18.6986 128.609 18.9175 128.609 19.0927C128.609 19.2678 128.609 19.408 128.609 19.5131C128.609 19.6006 128.609 19.6882 128.609 19.7758V21.9302C128.609 22.8935 128.635 23.743 128.688 24.4786C128.723 24.8114 128.766 25.0829 128.819 25.2931C128.872 25.4858 128.968 25.6434 129.108 25.766C129.266 25.9062 129.45 25.9937 129.66 26.0288C129.87 26.0463 130.124 26.055 130.422 26.055L130.527 26.1601L130.579 27.0534L130.527 27.1322C130.194 27.0972 129.87 27.0709 129.555 27.0534C129.239 27.0534 128.872 27.0534 128.451 27.0534C128.031 27.0534 127.584 27.0534 127.111 27.0534C126.638 27.0709 126.183 27.0972 125.745 27.1322L125.587 26.6068C125.64 26.4141 125.692 26.1601 125.745 25.8448C125.815 25.5121 125.868 25.1793 125.903 24.8465L125.824 24.7939Z" fill="white"/>
<path d="M137.515 26.8695C137.567 26.7119 137.602 26.4842 137.62 26.1864C137.655 25.8886 137.699 25.6171 137.751 25.3719L137.725 25.2931C137.515 25.5558 137.27 25.8098 136.989 26.055C136.727 26.3002 136.429 26.5192 136.096 26.7119C135.763 26.9045 135.404 27.0534 135.019 27.1585C134.651 27.2811 134.257 27.3424 133.836 27.3424C133.206 27.3424 132.654 27.2461 132.181 27.0534C131.708 26.8607 131.314 26.6068 130.999 26.2915C130.683 25.9762 130.438 25.6084 130.263 25.188C130.105 24.7676 130.027 24.3298 130.027 23.8744C130.027 23.1913 130.176 22.5958 130.473 22.0878C130.771 21.5799 131.165 21.1683 131.656 20.853C132.111 20.5552 132.645 20.3275 133.258 20.1699C133.871 19.9947 134.467 19.8634 135.045 19.7758C135.623 19.6882 136.149 19.6357 136.621 19.6182C137.094 19.5831 137.41 19.5656 137.567 19.5656H137.935C137.918 19.0226 137.883 18.6023 137.83 18.3045C137.778 17.9892 137.707 17.7265 137.62 17.5163C137.462 17.166 137.199 16.9208 136.832 16.7807C136.481 16.623 136.061 16.5442 135.57 16.5442C135.273 16.5442 134.949 16.5705 134.598 16.623C134.266 16.658 133.95 16.7369 133.652 16.8595C133.355 16.9821 133.092 17.1572 132.864 17.3849C132.654 17.5951 132.531 17.8754 132.496 18.2257L132.391 18.3045H131.551L131.314 15.8348L131.393 15.6772C131.498 15.5721 131.699 15.4582 131.997 15.3356C132.295 15.213 132.654 15.0992 133.074 14.9941C133.495 14.8715 133.95 14.7751 134.441 14.7051C134.949 14.6175 135.457 14.5737 135.965 14.5737C136.648 14.5737 137.287 14.6613 137.883 14.8364C138.478 14.9941 138.986 15.2393 139.407 15.5721C139.844 15.9049 140.186 16.3253 140.431 16.8332C140.676 17.3236 140.799 17.9016 140.799 18.5672C140.799 19.2854 140.79 19.8984 140.773 20.4064C140.773 20.9143 140.764 21.3872 140.747 21.8251C140.729 22.263 140.711 22.6921 140.694 23.1124C140.694 23.5153 140.694 23.9707 140.694 24.4786C140.729 24.8815 140.773 25.1705 140.825 25.3457C140.878 25.5208 140.965 25.6609 141.088 25.766C141.228 25.9062 141.438 25.9937 141.719 26.0288C142.016 26.0463 142.288 26.055 142.533 26.055L142.612 26.1601L142.665 27.0534L142.638 27.1585C142.34 27.1235 141.999 27.0972 141.614 27.0797C141.228 27.0622 140.869 27.0534 140.536 27.0534C140.046 27.0534 139.555 27.0534 139.065 27.0534C138.574 27.0709 138.11 27.0972 137.672 27.1322L137.515 26.8695ZM137.515 24.032C137.567 23.9444 137.62 23.8393 137.672 23.7167C137.742 23.5941 137.786 23.4452 137.804 23.2701L137.935 21.0369H137.699C137.156 21.0369 136.621 21.0719 136.096 21.142C135.57 21.2121 135.098 21.3434 134.677 21.5361C134.257 21.7288 133.915 22.0002 133.652 22.3505C133.39 22.7009 133.258 23.1562 133.258 23.7167C133.258 24.1896 133.372 24.5662 133.6 24.8465C133.845 25.1267 134.169 25.2668 134.572 25.2668C134.87 25.2668 135.168 25.2318 135.465 25.1617C135.781 25.0742 136.07 24.9691 136.332 24.8465C136.595 24.7239 136.832 24.5925 137.042 24.4524C137.252 24.2947 137.41 24.1546 137.515 24.032Z" fill="white"/>
<path d="M150.185 27.1585C150.063 27.1585 149.879 27.1498 149.634 27.1322C149.389 27.1147 149.126 27.0972 148.846 27.0797C148.565 27.0797 148.303 27.0709 148.057 27.0534C147.812 27.0534 147.628 27.0534 147.506 27.0534H146.087C145.964 27.0534 145.771 27.0534 145.509 27.0534C145.263 27.0709 145.001 27.0797 144.72 27.0797C144.458 27.0972 144.195 27.1147 143.932 27.1322C143.687 27.1498 143.503 27.1585 143.38 27.1585L143.354 27.0534L143.407 26.1601L143.486 26.055C143.748 26.055 144.02 26.0463 144.3 26.0288C144.58 25.9937 144.791 25.9062 144.931 25.766C145.053 25.6434 145.141 25.4858 145.193 25.2931C145.246 25.1004 145.29 24.8289 145.325 24.4786C145.342 24.356 145.351 24.2334 145.351 24.1108C145.369 23.9882 145.377 23.8568 145.377 23.7167C145.395 23.5766 145.404 23.4102 145.404 23.2175C145.404 23.0249 145.404 22.7884 145.404 22.5082V12.288C145.404 11.9552 145.404 11.6924 145.404 11.4998C145.404 11.2896 145.395 11.1144 145.377 10.9743C145.377 10.8342 145.369 10.7116 145.351 10.6065C145.351 10.4839 145.342 10.3437 145.325 10.1861C145.29 10.0109 145.237 9.84455 145.167 9.68691C145.097 9.52927 145.036 9.42418 144.983 9.37164C144.808 9.14394 144.589 9.01257 144.326 8.97754C144.064 8.94251 143.792 8.92499 143.512 8.92499L143.407 8.81989V7.9266L143.512 7.84778H144.852C145.255 7.84778 145.684 7.84778 146.139 7.84778C146.595 7.83027 146.998 7.79524 147.348 7.74269L148.267 7.61133L148.425 8.11052C148.39 8.18058 148.355 8.29444 148.32 8.45208C148.303 8.5922 148.285 8.74983 148.267 8.92499C148.267 9.08263 148.259 9.24902 148.241 9.42418C148.241 9.58182 148.241 9.71318 148.241 9.81828C148.241 9.9584 148.232 10.0898 148.215 10.2124C148.215 10.3175 148.215 10.4488 148.215 10.6065C148.215 10.7466 148.206 10.9305 148.189 11.1582C148.189 11.3859 148.189 11.6662 148.189 11.999V22.1929C148.189 22.5432 148.189 22.8322 148.189 23.0599C148.206 23.2701 148.215 23.454 148.215 23.6116C148.232 23.7693 148.241 23.9182 148.241 24.0583C148.259 24.1809 148.276 24.321 148.294 24.4786C148.329 24.8465 148.364 25.1267 148.399 25.3194C148.451 25.4945 148.548 25.6434 148.688 25.766C148.828 25.9062 149.021 25.9937 149.266 26.0288C149.529 26.0463 149.791 26.055 150.054 26.055L150.185 26.1864L150.238 27.0534L150.185 27.1585Z" fill="white"/>
<path d="M158.176 27.1585C158.053 27.1585 157.869 27.1498 157.624 27.1322C157.379 27.1147 157.116 27.0972 156.836 27.0797C156.555 27.0797 156.293 27.0709 156.048 27.0534C155.802 27.0534 155.618 27.0534 155.496 27.0534H154.077C153.954 27.0534 153.762 27.0534 153.499 27.0534C153.254 27.0709 152.991 27.0797 152.711 27.0797C152.448 27.0972 152.185 27.1147 151.922 27.1322C151.677 27.1498 151.493 27.1585 151.371 27.1585L151.344 27.0534L151.397 26.1601L151.476 26.055C151.739 26.055 152.01 26.0463 152.29 26.0288C152.571 25.9937 152.781 25.9062 152.921 25.766C153.043 25.6434 153.131 25.4858 153.184 25.2931C153.236 25.1004 153.28 24.8289 153.315 24.4786C153.333 24.356 153.341 24.2334 153.341 24.1108C153.359 23.9882 153.368 23.8568 153.368 23.7167C153.385 23.5766 153.394 23.4102 153.394 23.2175C153.394 23.0249 153.394 22.7884 153.394 22.5082V19.5393C153.394 19.2065 153.394 18.9438 153.394 18.7511C153.394 18.5409 153.385 18.3658 153.368 18.2257C153.368 18.0855 153.359 17.9629 153.341 17.8579C153.341 17.7352 153.333 17.5951 153.315 17.4375C153.28 17.2623 153.227 17.0959 153.157 16.9383C153.087 16.7807 153.026 16.6756 152.973 16.623C152.798 16.3953 152.579 16.2639 152.317 16.2289C152.054 16.1939 151.782 16.1764 151.502 16.1764L151.397 16.0713V15.178L151.502 15.0992H152.842C153.245 15.0992 153.674 15.0992 154.129 15.0992C154.585 15.0817 154.988 15.0466 155.338 14.9941L156.258 14.8627L156.415 15.3619C156.38 15.432 156.345 15.5458 156.31 15.7035C156.293 15.8436 156.275 16.0012 156.258 16.1764C156.258 16.334 156.249 16.5004 156.231 16.6756C156.231 16.8332 156.231 16.9646 156.231 17.0697C156.231 17.2098 156.223 17.3411 156.205 17.4638C156.205 17.5688 156.205 17.7002 156.205 17.8579C156.205 17.998 156.196 18.1819 156.179 18.4096C156.179 18.6373 156.179 18.9175 156.179 19.2503V22.1929C156.179 22.5432 156.179 22.8322 156.179 23.0599C156.196 23.2701 156.205 23.454 156.205 23.6116C156.223 23.7693 156.231 23.9182 156.231 24.0583C156.249 24.1809 156.266 24.321 156.284 24.4786C156.319 24.8465 156.354 25.1267 156.389 25.3194C156.442 25.4945 156.538 25.6434 156.678 25.766C156.818 25.9062 157.011 25.9937 157.256 26.0288C157.519 26.0463 157.782 26.055 158.044 26.055L158.176 26.1864L158.228 27.0534L158.176 27.1585ZM152.842 10.948C152.842 10.7378 152.886 10.5277 152.973 10.3175C153.061 10.1073 153.184 9.92336 153.341 9.76572C153.499 9.59057 153.674 9.45921 153.867 9.37164C154.077 9.26654 154.296 9.21399 154.524 9.21399C154.962 9.21399 155.356 9.3979 155.706 9.76572C156.074 10.116 156.258 10.5101 156.258 10.948C156.258 11.1757 156.205 11.3947 156.1 11.6049C156.012 11.7975 155.881 11.9727 155.706 12.1303C155.548 12.288 155.364 12.4106 155.154 12.4981C154.944 12.5857 154.734 12.6295 154.524 12.6295C154.068 12.6295 153.674 12.4631 153.341 12.1303C153.008 11.7975 152.842 11.4034 152.842 10.948Z" fill="white"/>
<path d="M164.029 16.5442H161.139C161.139 17.5601 161.131 18.5059 161.113 19.3817C161.113 20.2399 161.113 20.9931 161.113 21.6412C161.113 22.2717 161.104 22.7884 161.087 23.1913C161.087 23.5941 161.087 23.8393 161.087 23.9269C161.087 24.61 161.218 25.0654 161.481 25.2931C161.744 25.5208 162.05 25.6347 162.4 25.6347C162.663 25.6347 162.961 25.6084 163.294 25.5558C163.627 25.5033 163.907 25.4332 164.135 25.3457L164.292 25.6347L164.029 26.5017C163.557 26.7644 163.066 26.9658 162.558 27.106C162.068 27.2636 161.612 27.3424 161.192 27.3424C160.123 27.3424 159.361 27.0972 158.906 26.6068C158.451 26.1163 158.223 25.4858 158.223 24.7151C158.223 24.5575 158.232 24.2509 158.249 23.7955C158.267 23.3226 158.284 22.7359 158.302 22.0353C158.319 21.3171 158.337 20.4939 158.354 19.5656C158.372 18.6373 158.381 17.6302 158.381 16.5442H157.014L156.909 16.4128V15.2568L157.014 15.1517L158.381 14.7839C158.381 14.2234 158.363 13.6542 158.328 13.0761C158.31 12.4806 158.284 11.9026 158.249 11.3421L158.433 11.1845L158.801 11.1582C158.924 11.1582 159.09 11.1494 159.3 11.1319C159.528 11.1144 159.764 11.0969 160.01 11.0794C160.255 11.0444 160.482 11.0093 160.693 10.9743C160.92 10.9393 161.087 10.9042 161.192 10.8692L161.428 10.9743C161.341 11.4122 161.271 11.9989 161.218 12.7346C161.166 13.4527 161.139 14.1358 161.139 14.7839L164.029 14.6263L164.161 14.7314V16.4128L164.029 16.5442Z" fill="white"/>
<path d="M172.748 30.1011C172.538 30.6266 172.258 31.0995 171.908 31.5198C171.575 31.9577 171.189 32.3343 170.752 32.6496C170.314 32.9649 169.849 33.2188 169.359 33.4115C168.869 33.6217 168.369 33.7618 167.861 33.8319C167.721 33.8669 167.555 33.8844 167.362 33.8844C167.187 33.8844 166.924 33.8844 166.574 33.8844L39.5712 33.8319L166.311 32.4919L166.416 32.3606H166.784C166.994 32.3606 167.222 32.3343 167.467 32.2817C167.713 32.2467 167.949 32.1679 168.177 32.0453C168.685 31.8001 169.149 31.4498 169.569 30.9944C170.007 30.539 170.305 30.1011 170.463 29.6807L171.198 27.7102L169.096 22.9023C169.009 22.7096 168.869 22.3681 168.676 21.8776C168.483 21.3872 168.264 20.853 168.019 20.275C167.774 19.6795 167.511 19.0927 167.231 18.5147C166.968 17.9367 166.723 17.455 166.495 17.0697C166.32 16.7894 166.119 16.5705 165.891 16.4128C165.681 16.2552 165.392 16.1589 165.024 16.1238L164.866 15.9925V15.0992L164.971 14.9941C165.269 15.0291 165.584 15.0641 165.917 15.0992C166.25 15.1342 166.556 15.1517 166.837 15.1517H168.912C169.175 15.1517 169.49 15.1342 169.858 15.0992C170.244 15.0641 170.594 15.0291 170.909 14.9941L171.014 15.0992V15.9399L170.909 16.045C170.576 16.08 170.287 16.1851 170.042 16.3603C169.814 16.5179 169.701 16.7544 169.701 17.0697C169.701 17.2798 169.771 17.6301 169.911 18.1206C170.068 18.5935 170.244 19.1014 170.436 19.6444C170.646 20.1874 170.839 20.6953 171.014 21.1683C171.207 21.6237 171.33 21.9302 171.382 22.0878L172.512 25.2668L173.826 22.0878C173.948 21.8076 174.097 21.4573 174.272 21.0369C174.447 20.599 174.614 20.1436 174.771 19.6707C174.947 19.1978 175.096 18.7336 175.218 18.2782C175.341 17.8228 175.402 17.42 175.402 17.0697C175.402 16.6843 175.271 16.4303 175.008 16.3077C174.745 16.1676 174.465 16.08 174.167 16.045L174.062 15.9399V15.0992L174.167 14.9941C174.5 15.0641 174.815 15.1079 175.113 15.1254C175.411 15.143 175.691 15.1517 175.954 15.1517H178.082C178.38 15.1517 178.669 15.1342 178.949 15.0992C179.247 15.0641 179.562 15.0291 179.895 14.9941L180 15.0992V15.9925L179.842 16.1238C179.545 16.1589 179.282 16.2464 179.054 16.3866C178.844 16.5267 178.643 16.7544 178.45 17.0697C178.187 17.49 177.889 18.033 177.557 18.6986C177.241 19.3467 176.926 20.0035 176.611 20.6691C176.313 21.3347 176.041 21.9389 175.796 22.4819C175.551 23.0249 175.393 23.4014 175.323 23.6116L172.748 30.1011Z" fill="#EBF228"/>
<path d="M12.7108 0.55394C9.83773 1.76364 8.04838 4.43507 8.04838 7.50974C8.04838 9.3999 8.50202 10.8364 10.2914 14.5915C12.3327 18.8507 12.862 20.5645 13.0132 23.2611C13.1644 25.7561 12.7108 28.2007 11.8287 29.9397C11.5515 30.4941 11.4003 30.9478 11.5011 30.9478C11.6271 30.9478 12.8872 29.9649 14.2985 28.7804C19.5154 24.4204 23.2201 19.1531 24.455 14.3647C26.3452 6.95529 22.5144 0.352323 16.1131 0.0246948C14.5253 -0.0509117 13.9709 0.0246944 12.7108 0.55394Z" fill="#FB1B8A"/>
<path d="M3.13397 14.7932C1.82346 15.3729 0.588552 16.8094 0.21052 18.1451C-0.847971 22.0515 2.15109 26.5122 7.72076 29.3853C10.5182 30.8218 11.1987 31.0234 10.3922 30.1162C8.67845 28.2764 8.25001 25.6554 8.93047 21.4214C9.56052 17.5151 8.98087 15.8265 6.68748 14.7932C5.37696 14.2136 4.41928 14.2136 3.13397 14.7932Z" fill="#EBF228"/>
<path d="M24.8078 21.9758C23.4721 22.5555 22.464 23.614 21.1031 25.8317C18.8853 29.4861 16.8692 31.1746 13.9961 31.8299L12.7864 32.1071L15.0042 32.7875C22.1112 35.0053 27.9581 33.846 30.5035 29.7885C31.184 28.6796 31.4612 26.8902 31.184 25.5797C30.5791 22.7571 27.2777 20.8921 24.8078 21.9758Z" fill="#0099DC"/>
</svg>
