<svg width="286" height="242" viewBox="0 0 286 242" fill="none" xmlns="http://www.w3.org/2000/svg">
<path d="M126.588 2.75119C112.318 8.75779 103.43 22.0224 103.43 37.2892C103.43 46.6745 105.683 53.8073 114.571 72.4529C124.71 93.6011 127.339 102.11 128.09 115.5C128.841 127.889 126.588 140.027 122.207 148.662C120.83 151.415 120.079 153.667 120.579 153.667C121.205 153.667 127.464 148.787 134.474 142.905C160.385 121.257 178.786 95.1028 184.92 71.3266C194.308 34.5362 175.281 1.75009 143.487 0.123296C135.601 -0.252117 132.847 0.123296 126.588 2.75119Z" fill="#FB1B8A"/>
<path d="M79.0208 73.4539C72.5116 76.332 66.378 83.4649 64.5003 90.0972C59.2429 109.494 74.1389 131.643 101.803 145.909C115.697 153.041 119.077 154.043 115.072 149.538C106.56 140.403 104.432 127.388 107.811 106.365C110.941 86.9687 108.062 78.5845 96.6707 73.4539C90.1615 70.5757 85.4048 70.5757 79.0208 73.4539Z" fill="#EBF228"/>
<path d="M186.673 109.118C180.038 111.996 175.031 117.252 168.272 128.264C157.256 146.409 147.242 154.793 132.972 158.047L126.963 159.424L137.979 162.802C173.279 173.814 202.32 168.058 214.962 147.911C218.342 142.405 219.719 133.52 218.342 127.013C215.338 112.997 198.94 103.737 186.673 109.118Z" fill="#0099DC"/>
<path d="M15.2452 228.393C14.9955 228.393 14.5854 228.375 14.0149 228.339C13.4443 228.304 12.8559 228.268 12.2496 228.232C11.6434 228.197 11.055 228.161 10.4844 228.125C9.91382 228.09 9.50372 228.072 9.25409 228.072H6.09807C5.84844 228.072 5.43834 228.09 4.86776 228.125C4.29718 228.161 3.70877 228.197 3.10253 228.232C2.49629 228.268 1.90788 228.304 1.3373 228.339C0.766716 228.375 0.356612 228.393 0.106984 228.393L0 228.179L0.160475 226.147L0.427934 225.933C0.855869 225.933 1.35513 225.915 1.9257 225.88C2.49628 225.808 2.94205 225.666 3.263 225.452C3.54829 225.238 3.81575 224.899 4.06538 224.436C4.31501 223.972 4.49331 223.277 4.6003 222.35C4.6003 222.101 4.6003 221.815 4.6003 221.495C4.63596 221.138 4.65379 220.71 4.65379 220.211C4.68945 219.712 4.70728 219.106 4.70728 218.393C4.70728 217.68 4.70728 216.789 4.70728 215.719V203.955C4.70728 203.242 4.70728 202.44 4.70728 201.548C4.70728 200.621 4.67162 199.712 4.6003 198.821C4.52897 197.894 4.35067 197.217 4.06538 196.789C3.81575 196.326 3.54829 195.987 3.263 195.773C2.94205 195.488 2.60327 195.327 2.24666 195.292C1.9257 195.256 1.31947 195.238 0.427934 195.238L0.160475 195.024L0 192.992L0.106984 192.778C0.356612 192.778 0.677563 192.796 1.06984 192.832C1.49777 192.867 1.92571 192.903 2.35364 192.939C2.81724 192.974 3.28083 193.01 3.74443 193.046C4.20802 193.081 4.63596 193.099 5.02823 193.099H9.09361C9.48589 193.099 9.93165 193.099 10.4309 193.099C10.9302 193.064 11.4294 193.046 11.9287 193.046C12.4636 193.046 12.945 193.046 13.373 193.046C13.8009 193.01 14.1575 192.992 14.4428 192.992C16.8321 192.992 18.847 193.242 20.4874 193.741C22.1634 194.204 23.5186 194.864 24.5528 195.719C25.5869 196.575 26.3358 197.609 26.7994 198.821C27.2987 199.998 27.5483 201.299 27.5483 202.725C27.5483 205.113 27.1204 207.074 26.2645 208.607C25.4086 210.14 24.3031 211.352 22.948 212.243C21.6285 213.135 20.1308 213.758 18.4547 214.115C16.8143 214.436 15.2095 214.596 13.6404 214.596H10.6449C10.6449 215.309 10.6449 216.058 10.6449 216.842C10.6449 217.627 10.6449 218.393 10.6449 219.142C10.6805 219.855 10.6984 220.496 10.6984 221.067C10.734 221.637 10.7697 222.065 10.8053 222.35C10.8767 223.384 11.055 224.115 11.3403 224.543C11.6256 224.935 11.8752 225.22 12.0892 225.398C12.4101 225.683 12.7311 225.844 13.052 225.88C13.4086 225.915 14.0505 225.933 14.9777 225.933L15.1917 226.147L15.3522 228.179L15.2452 228.393ZM13.373 210.639C16.3685 210.639 18.5082 209.962 19.792 208.607C21.0758 207.252 21.7177 205.381 21.7177 202.992C21.7177 201.067 20.9688 199.641 19.471 198.714C18.0089 197.752 15.9941 197.27 13.4264 197.27H10.9123C10.8053 198.839 10.734 200.015 10.6984 200.8C10.6627 201.548 10.6449 202.226 10.6449 202.832V208.661C10.6449 209.124 10.6627 209.498 10.6984 209.783C10.734 210.033 10.8232 210.229 10.9658 210.372C11.1085 210.479 11.3046 210.55 11.5542 210.586C11.8395 210.621 12.214 210.639 12.6776 210.639H13.373Z" fill="#0099DC"/>
<path d="M39.52 209.142C39.8766 208.464 40.2689 207.751 40.6968 207.003C41.1604 206.254 41.6775 205.559 42.2481 204.917C42.8187 204.276 43.4606 203.741 44.1738 203.313C44.9227 202.885 45.7607 202.671 46.6879 202.671C46.9732 202.671 47.312 202.707 47.7043 202.778C48.1322 202.814 48.5423 202.885 48.9346 202.992C49.3625 203.099 49.7726 203.224 50.1649 203.366C50.5572 203.509 50.8603 203.669 51.0742 203.848L51.4487 204.169L50.8068 209.944H48.5066C48.3997 209.516 48.1144 209.088 47.6508 208.661C47.2228 208.197 46.5453 207.965 45.6181 207.965C44.7979 207.965 44.049 208.179 43.3714 208.607C42.6939 208.999 42.1055 209.498 41.6062 210.104C41.1069 210.71 40.7147 211.37 40.4294 212.083C40.1441 212.76 40.0014 213.384 40.0014 213.955V217.644C40.0014 218.999 40.0014 220.015 40.0014 220.692C40.0371 221.37 40.0728 221.958 40.1084 222.457C40.1797 223.241 40.2689 223.883 40.3759 224.382C40.5185 224.846 40.7325 225.202 41.0178 225.452C41.1604 225.594 41.3744 225.719 41.6597 225.826C41.9806 225.897 42.3016 225.951 42.6225 225.986C42.9435 226.022 43.2466 226.04 43.5319 226.04C43.8528 226.04 44.1025 226.04 44.2808 226.04L44.5483 226.307L44.6552 228.072L44.5483 228.286C44.3343 228.286 43.9777 228.268 43.4784 228.232C42.9791 228.197 42.4442 228.161 41.8736 228.125C41.3031 228.125 40.7682 228.108 40.2689 228.072C39.7696 228.072 39.413 228.072 39.1991 228.072H35.7756C35.526 228.072 35.1337 228.072 34.5988 228.072C34.0995 228.108 33.5646 228.125 32.994 228.125C32.4234 228.161 31.8707 228.197 31.3358 228.232C30.8365 228.268 30.4621 228.286 30.2124 228.286L30.1589 228.072L30.2659 226.254L30.4264 226.04C31.0326 226.04 31.6032 226.022 32.1381 225.986C32.6731 225.915 33.0832 225.737 33.3685 225.452C33.6537 225.202 33.8499 224.881 33.9569 224.489C34.0995 224.097 34.2065 223.42 34.2778 222.457C34.3135 222.029 34.3313 221.459 34.3313 220.746C34.3313 220.033 34.3313 219.035 34.3313 217.751V213.848C34.3313 213.099 34.3313 212.475 34.3313 211.976C34.3313 211.441 34.3135 210.978 34.2778 210.586C34.2778 210.193 34.26 209.837 34.2243 209.516C34.2243 209.195 34.2065 208.857 34.1708 208.5C34.0995 208.144 33.9925 207.805 33.8499 207.484C33.7072 207.163 33.5824 206.949 33.4754 206.842C33.1188 206.379 32.6731 206.112 32.1381 206.04C31.6032 205.969 31.0505 205.933 30.4799 205.933L30.2659 205.719V203.901L30.4799 203.741H31.4428C32.2273 203.741 33.2436 203.741 34.4918 203.741C35.7399 203.705 36.8276 203.634 37.7548 203.527L39.627 203.26L39.9479 204.276C39.734 204.953 39.5735 205.719 39.4665 206.575C39.3952 207.431 39.3595 208.268 39.3595 209.088L39.52 209.142Z" fill="#0099DC"/>
<path d="M67.1744 228.286C66.9248 228.286 66.5504 228.268 66.0511 228.232C65.5519 228.197 65.017 228.161 64.4464 228.125C63.8758 228.125 63.3409 228.108 62.8416 228.072C62.3424 228.072 61.9679 228.072 61.7183 228.072H58.8297C58.5801 228.072 58.1878 228.072 57.6529 228.072C57.1536 228.108 56.6187 228.125 56.0482 228.125C55.5132 228.161 54.9783 228.197 54.4434 228.232C53.9441 228.268 53.5697 228.286 53.3201 228.286L53.2666 228.072L53.3736 226.254L53.534 226.04C54.0689 226.04 54.6217 226.022 55.1923 225.986C55.7629 225.915 56.1908 225.737 56.4761 225.452C56.7257 225.202 56.904 224.881 57.011 224.489C57.118 224.097 57.2071 223.544 57.2785 222.831C57.3141 222.582 57.332 222.332 57.332 222.083C57.3676 221.833 57.3854 221.566 57.3854 221.281C57.4211 220.995 57.4389 220.657 57.4389 220.265C57.4389 219.872 57.4389 219.391 57.4389 218.821V212.778C57.4389 212.101 57.4389 211.566 57.4389 211.174C57.4389 210.746 57.4211 210.39 57.3854 210.104C57.3854 209.819 57.3676 209.57 57.332 209.356C57.332 209.106 57.3141 208.821 57.2785 208.5C57.2071 208.144 57.1001 207.805 56.9575 207.484C56.8149 207.163 56.6901 206.949 56.5831 206.842C56.2265 206.379 55.7807 206.112 55.2458 206.04C54.7109 205.969 54.1581 205.933 53.5875 205.933L53.3736 205.719V203.901L53.5875 203.741H56.3156C57.1358 203.741 58.0095 203.741 58.9367 203.741C59.8639 203.705 60.6841 203.634 61.3973 203.527L63.2695 203.26L63.5905 204.276C63.5192 204.418 63.4478 204.65 63.3765 204.971C63.3409 205.256 63.3052 205.577 63.2695 205.933C63.2695 206.254 63.2517 206.593 63.2161 206.949C63.2161 207.27 63.2161 207.538 63.2161 207.751C63.2161 208.037 63.1982 208.304 63.1626 208.554C63.1626 208.767 63.1626 209.035 63.1626 209.356C63.1626 209.641 63.1447 210.015 63.1091 210.479C63.1091 210.942 63.1091 211.512 63.1091 212.19V218.179C63.1091 218.892 63.1091 219.48 63.1091 219.944C63.1447 220.372 63.1626 220.746 63.1626 221.067C63.1982 221.388 63.2161 221.691 63.2161 221.976C63.2517 222.225 63.2874 222.511 63.323 222.831C63.3944 223.58 63.4657 224.15 63.537 224.543C63.644 224.899 63.8401 225.202 64.1254 225.452C64.4107 225.737 64.803 225.915 65.3022 225.986C65.8371 226.022 66.3721 226.04 66.907 226.04L67.1744 226.307L67.2814 228.072L67.1744 228.286ZM56.3156 195.292C56.3156 194.864 56.4048 194.436 56.5831 194.008C56.7614 193.58 57.011 193.206 57.332 192.885C57.6529 192.529 58.0095 192.261 58.4018 192.083C58.8297 191.869 59.2755 191.762 59.7391 191.762C60.6306 191.762 61.433 192.137 62.1462 192.885C62.8951 193.598 63.2695 194.4 63.2695 195.292C63.2695 195.755 63.1626 196.201 62.9486 196.629C62.7703 197.021 62.5028 197.377 62.1462 197.698C61.8253 198.019 61.4508 198.268 61.0229 198.447C60.595 198.625 60.167 198.714 59.7391 198.714C58.8119 198.714 58.0095 198.375 57.332 197.698C56.6544 197.021 56.3156 196.219 56.3156 195.292Z" fill="#0099DC"/>
<path d="M79.8579 208.126C80.6781 206.557 81.8014 205.256 83.2279 204.222C84.6543 203.188 86.3304 202.671 88.2561 202.671C89.3616 202.671 90.4493 202.814 91.5191 203.099C92.5889 203.384 93.5518 203.83 94.4076 204.436C95.2992 205.042 96.0302 205.826 96.6008 206.789C97.207 207.716 97.5993 208.821 97.7776 210.104C97.8846 211.031 97.9381 212.012 97.9381 213.045C97.9738 214.079 97.9916 215.113 97.9916 216.147C98.0273 217.359 98.0451 218.482 98.0451 219.516C98.0451 220.514 98.0451 221.619 98.0451 222.831C98.0451 223.651 98.1342 224.275 98.3126 224.703C98.5265 225.095 98.7762 225.363 99.0614 225.505C99.4537 225.719 99.8638 225.862 100.292 225.933C100.755 226.004 101.272 226.04 101.843 226.04L102.003 226.254L102.11 228.072L102.003 228.286C101.255 228.215 100.417 228.161 99.4894 228.125C98.5978 228.09 97.7241 228.072 96.8683 228.072C96.0124 228.072 95.1565 228.072 94.3007 228.072C93.4448 228.108 92.6424 228.161 91.8935 228.232L91.5191 227.163C91.6261 226.7 91.7152 226.004 91.7866 225.077C91.8935 224.151 91.9649 223.402 92.0005 222.831C92.0718 221.477 92.1253 220.211 92.161 219.035C92.1967 217.858 92.2145 216.807 92.2145 215.88C92.2145 215.06 92.1967 214.168 92.161 213.206C92.1253 212.243 92.0005 211.406 91.7866 210.693C91.5013 209.552 90.9128 208.714 90.0213 208.179C89.1654 207.609 88.1669 207.324 87.0258 207.324C85.9559 207.324 84.9753 207.52 84.0837 207.912C83.1922 208.304 82.4255 208.785 81.7836 209.356C81.1773 209.89 80.6959 210.461 80.3393 211.067C79.9827 211.673 79.8044 212.208 79.8044 212.671V218.179C79.8044 218.892 79.8044 219.48 79.8044 219.944C79.8044 220.372 79.8044 220.746 79.8044 221.067C79.84 221.388 79.8579 221.691 79.8579 221.976C79.8935 222.225 79.9292 222.511 79.9648 222.831C80.0362 223.58 80.1788 224.15 80.3928 224.543C80.6424 224.899 80.9099 225.202 81.1952 225.452C81.4804 225.737 81.8192 225.915 82.2115 225.986C82.6038 226.022 83.0674 226.04 83.6023 226.04L83.8698 226.307L83.9767 228.072L83.8698 228.286C83.6201 228.286 83.2457 228.268 82.7464 228.232C82.2472 228.197 81.7123 228.161 81.1417 228.125C80.5711 228.125 80.0362 228.108 79.5369 228.072C79.0377 228.072 78.6632 228.072 78.4136 228.072H75.4715C75.2219 228.072 74.8296 228.072 74.2947 228.072C73.7955 228.108 73.2605 228.125 72.69 228.125C72.155 228.161 71.6201 228.197 71.0852 228.232C70.5859 228.268 70.2115 228.286 69.9619 228.286L69.9084 228.072L70.0154 226.254L70.1758 226.04C70.7464 226.04 71.2457 226.022 71.6736 225.986C72.1372 225.915 72.5117 225.737 72.797 225.452C73.0466 225.202 73.2784 224.881 73.4923 224.489C73.7063 224.097 73.849 223.544 73.9203 222.831C73.9559 222.582 73.9738 222.332 73.9738 222.083C74.0094 221.833 74.0273 221.566 74.0273 221.281C74.0629 220.995 74.0807 220.657 74.0807 220.265C74.0807 219.872 74.0807 219.391 74.0807 218.821V213.313C74.0807 212.635 74.0807 212.065 74.0807 211.602C74.0807 211.138 74.0629 210.728 74.0273 210.372C74.0273 210.015 74.0094 209.694 73.9738 209.409C73.9738 209.124 73.9559 208.821 73.9203 208.5C73.849 208.144 73.742 207.805 73.5993 207.484C73.4567 207.163 73.3319 206.949 73.2249 206.842C72.8683 206.379 72.4225 206.112 71.8876 206.04C71.3527 205.969 70.7999 205.933 70.2293 205.933L70.0154 205.719V203.901L70.2293 203.741H72.9574C73.7776 203.741 74.6513 203.741 75.5785 203.741C76.5414 203.705 77.3794 203.634 78.0926 203.527L79.9648 203.26L80.2858 204.276C80.0005 204.668 79.8222 205.22 79.7509 205.933C79.7152 206.611 79.6974 207.306 79.6974 208.019L79.8579 208.126Z" fill="#0099DC"/>
<path d="M116.696 206.682H110.812C110.812 208.75 110.794 210.675 110.759 212.457C110.759 214.204 110.759 215.737 110.759 217.056C110.759 218.34 110.741 219.391 110.705 220.211C110.705 221.031 110.705 221.53 110.705 221.708C110.705 223.099 110.973 224.026 111.507 224.489C112.042 224.953 112.666 225.184 113.38 225.184C113.915 225.184 114.521 225.131 115.198 225.024C115.876 224.917 116.447 224.774 116.91 224.596L117.231 225.184L116.696 226.949C115.733 227.484 114.735 227.894 113.701 228.179C112.702 228.5 111.775 228.66 110.919 228.66C108.744 228.66 107.192 228.161 106.265 227.163C105.338 226.165 104.874 224.881 104.874 223.313C104.874 222.992 104.892 222.368 104.928 221.441C104.964 220.479 104.999 219.284 105.035 217.858C105.071 216.397 105.106 214.721 105.142 212.832C105.178 210.942 105.195 208.892 105.195 206.682H102.414L102.2 206.415V204.062L102.414 203.848L105.195 203.099C105.195 201.958 105.16 200.8 105.088 199.623C105.053 198.411 104.999 197.235 104.928 196.094L105.302 195.773L106.051 195.719C106.301 195.719 106.64 195.702 107.068 195.666C107.531 195.63 108.013 195.595 108.512 195.559C109.011 195.488 109.475 195.416 109.903 195.345C110.366 195.274 110.705 195.203 110.919 195.131L111.4 195.345C111.222 196.236 111.08 197.431 110.973 198.928C110.866 200.39 110.812 201.78 110.812 203.099L116.696 202.778L116.964 202.992V206.415L116.696 206.682Z" fill="#0099DC"/>
<path d="M135.628 192.511C138.374 192.511 140.816 192.992 142.956 193.955C145.096 194.917 146.897 196.219 148.359 197.859C149.821 199.498 150.926 201.406 151.675 203.58C152.46 205.755 152.852 208.037 152.852 210.425C152.852 212.707 152.513 214.917 151.836 217.056C151.158 219.159 150.142 221.049 148.787 222.725C147.467 224.364 145.827 225.719 143.865 226.789C141.904 227.858 139.64 228.464 137.072 228.607C138.891 228.642 140.495 228.856 141.886 229.248C143.277 229.676 144.579 230.122 145.791 230.585C147.039 231.084 148.27 231.53 149.482 231.922C150.695 232.314 151.996 232.51 153.387 232.51C153.886 232.51 154.475 232.439 155.152 232.297C155.865 232.19 156.614 231.904 157.399 231.441L157.559 231.548L158.308 233.045L158.255 233.259C157.435 234.293 156.436 235.166 155.259 235.879C154.082 236.592 152.763 236.949 151.301 236.949C150.088 236.949 148.84 236.664 147.556 236.093C146.308 235.559 144.989 234.953 143.598 234.275C142.207 233.633 140.763 233.027 139.265 232.457C137.767 231.922 136.198 231.655 134.558 231.655C133.167 231.655 131.812 231.887 130.492 232.35C129.209 232.814 128.264 233.313 127.657 233.847L127.497 233.794L126.909 231.708L126.962 231.548C127.747 231.013 128.799 230.425 130.118 229.783C131.438 229.142 132.864 228.767 134.397 228.66C131.758 228.625 129.44 228.126 127.443 227.163C125.446 226.2 123.77 224.917 122.415 223.313C121.096 221.673 120.097 219.783 119.42 217.644C118.742 215.505 118.403 213.242 118.403 210.853C118.403 208.322 118.796 205.951 119.58 203.741C120.365 201.495 121.488 199.552 122.95 197.912C124.412 196.236 126.213 194.917 128.353 193.955C130.493 192.992 132.917 192.511 135.628 192.511ZM135.574 224.222C137.322 224.222 138.873 223.865 140.228 223.152C141.619 222.404 142.778 221.423 143.705 220.211C144.632 218.963 145.345 217.52 145.845 215.88C146.344 214.204 146.594 212.422 146.594 210.532C146.594 208.607 146.326 206.825 145.791 205.185C145.292 203.509 144.543 202.065 143.545 200.853C142.582 199.641 141.405 198.696 140.014 198.019C138.623 197.306 137.054 196.949 135.307 196.949C133.595 196.949 132.079 197.288 130.76 197.965C129.44 198.643 128.335 199.588 127.443 200.8C126.552 202.012 125.874 203.456 125.411 205.131C124.947 206.771 124.715 208.554 124.715 210.479C124.715 212.582 124.983 214.489 125.518 216.201C126.053 217.876 126.802 219.32 127.764 220.532C128.727 221.708 129.868 222.618 131.188 223.259C132.507 223.901 133.969 224.222 135.574 224.222Z" fill="#2F2E41"/>
<path d="M175.602 223.473C174.64 225.006 173.445 226.254 172.018 227.216C170.592 228.179 168.791 228.66 166.616 228.66C165.617 228.66 164.637 228.535 163.674 228.286C162.747 228.036 161.891 227.644 161.106 227.109C160.357 226.575 159.698 225.88 159.127 225.024C158.556 224.133 158.146 223.063 157.897 221.815C157.825 221.495 157.754 221.138 157.683 220.746C157.647 220.354 157.611 219.855 157.576 219.249C157.576 218.607 157.558 217.84 157.522 216.949C157.522 216.022 157.522 214.881 157.522 213.527V208.714C157.522 208.322 157.433 207.93 157.255 207.538C157.076 207.145 156.934 206.896 156.827 206.789C156.47 206.361 156.024 206.112 155.489 206.04C154.955 205.969 154.402 205.933 153.831 205.933L153.671 205.719V203.901L153.831 203.741H156.452C157.273 203.741 158.146 203.741 159.073 203.741C160.001 203.705 160.821 203.634 161.534 203.527L163.406 203.26L163.727 204.276C163.656 204.418 163.602 204.686 163.567 205.078C163.531 205.434 163.495 205.826 163.46 206.254C163.424 206.682 163.406 207.092 163.406 207.484C163.406 207.876 163.406 208.179 163.406 208.393C163.406 208.857 163.388 209.427 163.353 210.104C163.353 210.746 163.335 211.423 163.299 212.136C163.299 212.814 163.281 213.473 163.246 214.115C163.246 214.757 163.246 215.291 163.246 215.719C163.246 216.646 163.281 217.591 163.353 218.553C163.424 219.48 163.567 220.336 163.781 221.12C164.137 222.368 164.672 223.295 165.385 223.901C166.134 224.471 167.169 224.757 168.488 224.757C169.558 224.757 170.503 224.578 171.323 224.222C172.179 223.865 172.91 223.438 173.516 222.938C174.122 222.439 174.622 221.905 175.014 221.334C175.406 220.728 175.656 220.193 175.763 219.73V214.382C175.763 212.742 175.727 211.477 175.656 210.586C175.62 209.694 175.567 208.999 175.495 208.5C175.424 208.037 175.317 207.662 175.174 207.377C175.067 207.092 174.961 206.896 174.854 206.789C174.461 206.361 173.962 206.112 173.356 206.04C172.75 205.969 172.268 205.933 171.911 205.933L171.697 205.719V203.901L171.911 203.741H172.874C173.231 203.741 173.695 203.741 174.265 203.741C174.871 203.741 175.495 203.741 176.137 203.741C176.779 203.705 177.403 203.687 178.01 203.687C178.616 203.652 179.133 203.598 179.561 203.527L181.433 203.26L181.754 204.276C181.576 205.309 181.451 206.664 181.38 208.34C181.344 209.231 181.308 209.962 181.273 210.532C181.273 211.067 181.273 211.513 181.273 211.869C181.273 212.226 181.273 212.511 181.273 212.725C181.273 212.903 181.273 213.081 181.273 213.259V217.644C181.273 219.605 181.326 221.334 181.433 222.831C181.504 223.509 181.593 224.061 181.7 224.489C181.807 224.881 182.004 225.202 182.289 225.452C182.61 225.737 182.984 225.915 183.412 225.986C183.84 226.022 184.357 226.04 184.963 226.04L185.177 226.254L185.284 228.072L185.177 228.232C184.5 228.161 183.84 228.108 183.198 228.072C182.556 228.072 181.807 228.072 180.952 228.072C180.096 228.072 179.186 228.072 178.223 228.072C177.261 228.108 176.333 228.161 175.442 228.232L175.121 227.163C175.228 226.771 175.335 226.254 175.442 225.612C175.585 224.935 175.692 224.257 175.763 223.58L175.602 223.473Z" fill="#2F2E41"/>
<path d="M199.404 227.698C199.511 227.377 199.582 226.913 199.618 226.307C199.689 225.701 199.779 225.149 199.886 224.65L199.832 224.489C199.404 225.024 198.905 225.541 198.334 226.04C197.799 226.539 197.193 226.985 196.516 227.377C195.838 227.769 195.107 228.072 194.322 228.286C193.574 228.535 192.771 228.66 191.915 228.66C190.632 228.66 189.508 228.464 188.545 228.072C187.582 227.68 186.78 227.163 186.138 226.521C185.496 225.88 184.997 225.131 184.64 224.275C184.319 223.42 184.159 222.528 184.159 221.602C184.159 220.211 184.462 218.999 185.068 217.965C185.675 216.931 186.477 216.094 187.476 215.452C188.403 214.846 189.49 214.382 190.739 214.062C191.987 213.705 193.199 213.438 194.376 213.259C195.553 213.081 196.623 212.974 197.585 212.939C198.548 212.867 199.19 212.832 199.511 212.832H200.26C200.224 211.726 200.153 210.871 200.046 210.265C199.939 209.623 199.796 209.088 199.618 208.661C199.297 207.948 198.762 207.448 198.013 207.163C197.3 206.842 196.444 206.682 195.446 206.682C194.84 206.682 194.18 206.735 193.467 206.842C192.789 206.914 192.147 207.074 191.541 207.324C190.935 207.573 190.4 207.93 189.936 208.393C189.508 208.821 189.259 209.391 189.187 210.104L188.973 210.265H187.262L186.78 205.238L186.941 204.917C187.155 204.703 187.565 204.472 188.171 204.222C188.777 203.972 189.508 203.741 190.364 203.527C191.22 203.277 192.147 203.081 193.146 202.939C194.18 202.76 195.214 202.671 196.248 202.671C197.639 202.671 198.941 202.85 200.153 203.206C201.366 203.527 202.4 204.026 203.256 204.703C204.147 205.381 204.843 206.236 205.342 207.27C205.841 208.268 206.091 209.445 206.091 210.8C206.091 212.261 206.073 213.509 206.037 214.543C206.037 215.577 206.019 216.539 205.984 217.43C205.948 218.322 205.912 219.195 205.877 220.051C205.877 220.871 205.877 221.798 205.877 222.831C205.948 223.651 206.037 224.24 206.144 224.596C206.251 224.953 206.429 225.238 206.679 225.452C206.964 225.737 207.392 225.915 207.963 225.986C208.569 226.022 209.122 226.04 209.621 226.04L209.782 226.254L209.889 228.072L209.835 228.286C209.229 228.215 208.533 228.161 207.749 228.125C206.964 228.09 206.233 228.072 205.556 228.072C204.557 228.072 203.559 228.072 202.56 228.072C201.562 228.108 200.617 228.161 199.725 228.232L199.404 227.698ZM199.404 221.922C199.511 221.744 199.618 221.53 199.725 221.281C199.868 221.031 199.957 220.728 199.993 220.372L200.26 215.826H199.779C198.673 215.826 197.585 215.897 196.516 216.04C195.446 216.183 194.483 216.45 193.627 216.842C192.771 217.234 192.076 217.787 191.541 218.5C191.006 219.213 190.739 220.14 190.739 221.281C190.739 222.243 190.97 223.01 191.434 223.58C191.933 224.151 192.593 224.436 193.413 224.436C194.019 224.436 194.626 224.364 195.232 224.222C195.874 224.044 196.462 223.83 196.997 223.58C197.532 223.331 198.013 223.063 198.441 222.778C198.869 222.457 199.19 222.172 199.404 221.922Z" fill="#2F2E41"/>
<path d="M225.201 228.286C224.951 228.286 224.577 228.268 224.077 228.232C223.578 228.197 223.043 228.161 222.473 228.125C221.902 228.125 221.367 228.108 220.868 228.072C220.369 228.072 219.994 228.072 219.744 228.072H216.856C216.606 228.072 216.214 228.072 215.679 228.072C215.18 228.108 214.645 228.125 214.074 228.125C213.539 228.161 213.004 228.197 212.47 228.232C211.97 228.268 211.596 228.286 211.346 228.286L211.293 228.072L211.4 226.254L211.56 226.04C212.095 226.04 212.648 226.022 213.218 225.986C213.789 225.915 214.217 225.737 214.502 225.452C214.752 225.202 214.93 224.881 215.037 224.489C215.144 224.097 215.233 223.544 215.305 222.831C215.34 222.582 215.358 222.332 215.358 222.083C215.394 221.833 215.412 221.566 215.412 221.281C215.447 220.995 215.465 220.657 215.465 220.265C215.465 219.872 215.465 219.391 215.465 218.821V198.019C215.465 197.342 215.465 196.807 215.465 196.415C215.465 195.987 215.447 195.63 215.412 195.345C215.412 195.06 215.394 194.81 215.358 194.597C215.358 194.347 215.34 194.062 215.305 193.741C215.233 193.384 215.126 193.046 214.984 192.725C214.841 192.404 214.716 192.19 214.609 192.083C214.253 191.62 213.807 191.352 213.272 191.281C212.737 191.21 212.184 191.174 211.614 191.174L211.4 190.96V189.142L211.614 188.982H214.342C215.162 188.982 216.036 188.982 216.963 188.982C217.89 188.946 218.71 188.875 219.424 188.768L221.296 188.5L221.617 189.516C221.545 189.659 221.474 189.891 221.403 190.212C221.367 190.497 221.331 190.818 221.296 191.174C221.296 191.495 221.278 191.834 221.242 192.19C221.242 192.511 221.242 192.778 221.242 192.992C221.242 193.277 221.224 193.545 221.189 193.794C221.189 194.008 221.189 194.276 221.189 194.597C221.189 194.882 221.171 195.256 221.135 195.719C221.135 196.183 221.135 196.753 221.135 197.431V218.179C221.135 218.892 221.135 219.48 221.135 219.944C221.171 220.372 221.189 220.746 221.189 221.067C221.224 221.388 221.242 221.691 221.242 221.976C221.278 222.225 221.314 222.511 221.349 222.831C221.421 223.58 221.492 224.15 221.563 224.543C221.67 224.899 221.866 225.202 222.152 225.452C222.437 225.737 222.829 225.915 223.328 225.986C223.863 226.022 224.398 226.04 224.933 226.04L225.201 226.307L225.308 228.072L225.201 228.286Z" fill="#2F2E41"/>
<path d="M241.468 228.286C241.218 228.286 240.844 228.268 240.345 228.232C239.845 228.197 239.311 228.161 238.74 228.125C238.169 228.125 237.634 228.108 237.135 228.072C236.636 228.072 236.261 228.072 236.012 228.072H233.123C232.874 228.072 232.481 228.072 231.946 228.072C231.447 228.108 230.912 228.125 230.342 228.125C229.807 228.161 229.272 228.197 228.737 228.232C228.238 228.268 227.863 228.286 227.614 228.286L227.56 228.072L227.667 226.254L227.828 226.04C228.362 226.04 228.915 226.022 229.486 225.986C230.056 225.915 230.484 225.737 230.77 225.452C231.019 225.202 231.198 224.881 231.305 224.489C231.412 224.097 231.501 223.544 231.572 222.831C231.608 222.582 231.625 222.332 231.625 222.083C231.661 221.833 231.679 221.566 231.679 221.281C231.715 220.995 231.732 220.657 231.732 220.265C231.732 219.872 231.732 219.391 231.732 218.821V212.778C231.732 212.101 231.732 211.566 231.732 211.174C231.732 210.746 231.715 210.39 231.679 210.104C231.679 209.819 231.661 209.57 231.625 209.356C231.625 209.106 231.608 208.821 231.572 208.5C231.501 208.144 231.394 207.805 231.251 207.484C231.108 207.163 230.984 206.949 230.877 206.842C230.52 206.379 230.074 206.112 229.539 206.04C229.004 205.969 228.452 205.933 227.881 205.933L227.667 205.719V203.901L227.881 203.741H230.609C231.429 203.741 232.303 203.741 233.23 203.741C234.157 203.705 234.978 203.634 235.691 203.527L237.563 203.26L237.884 204.276C237.813 204.418 237.741 204.65 237.67 204.971C237.634 205.256 237.599 205.577 237.563 205.933C237.563 206.254 237.545 206.593 237.51 206.949C237.51 207.27 237.51 207.538 237.51 207.751C237.51 208.037 237.492 208.304 237.456 208.554C237.456 208.767 237.456 209.035 237.456 209.356C237.456 209.641 237.438 210.015 237.403 210.479C237.403 210.942 237.403 211.512 237.403 212.19V218.179C237.403 218.892 237.403 219.48 237.403 219.944C237.438 220.372 237.456 220.746 237.456 221.067C237.492 221.388 237.51 221.691 237.51 221.976C237.545 222.225 237.581 222.511 237.617 222.831C237.688 223.58 237.759 224.15 237.831 224.543C237.938 224.899 238.134 225.202 238.419 225.452C238.704 225.737 239.097 225.915 239.596 225.986C240.131 226.022 240.666 226.04 241.201 226.04L241.468 226.307L241.575 228.072L241.468 228.286ZM230.609 195.292C230.609 194.864 230.698 194.436 230.877 194.008C231.055 193.58 231.305 193.206 231.625 192.885C231.946 192.529 232.303 192.261 232.695 192.083C233.123 191.869 233.569 191.762 234.033 191.762C234.924 191.762 235.727 192.137 236.44 192.885C237.189 193.598 237.563 194.4 237.563 195.292C237.563 195.755 237.456 196.201 237.242 196.629C237.064 197.021 236.796 197.377 236.44 197.698C236.119 198.019 235.744 198.268 235.316 198.447C234.888 198.625 234.461 198.714 234.033 198.714C233.105 198.714 232.303 198.375 231.625 197.698C230.948 197.021 230.609 196.219 230.609 195.292Z" fill="#2F2E41"/>
<path d="M253.386 206.682H247.502C247.502 208.75 247.484 210.675 247.448 212.457C247.448 214.204 247.448 215.737 247.448 217.056C247.448 218.34 247.43 219.391 247.395 220.211C247.395 221.031 247.395 221.53 247.395 221.708C247.395 223.099 247.662 224.026 248.197 224.489C248.732 224.953 249.356 225.184 250.069 225.184C250.604 225.184 251.21 225.131 251.888 225.024C252.566 224.917 253.136 224.774 253.6 224.596L253.921 225.184L253.386 226.949C252.423 227.484 251.424 227.894 250.39 228.179C249.392 228.5 248.465 228.66 247.609 228.66C245.433 228.66 243.882 228.161 242.955 227.163C242.028 226.165 241.564 224.881 241.564 223.313C241.564 222.992 241.582 222.368 241.618 221.441C241.653 220.479 241.689 219.284 241.725 217.858C241.76 216.397 241.796 214.721 241.832 212.832C241.867 210.942 241.885 208.892 241.885 206.682H239.103L238.89 206.415V204.062L239.103 203.848L241.885 203.099C241.885 201.958 241.849 200.8 241.778 199.623C241.742 198.411 241.689 197.235 241.618 196.094L241.992 195.773L242.741 195.719C242.991 195.719 243.329 195.702 243.757 195.666C244.221 195.63 244.702 195.595 245.202 195.559C245.701 195.488 246.164 195.416 246.592 195.345C247.056 195.274 247.395 195.203 247.609 195.131L248.09 195.345C247.912 196.236 247.769 197.431 247.662 198.928C247.555 200.39 247.502 201.78 247.502 203.099L253.386 202.778L253.653 202.992V206.415L253.386 206.682Z" fill="#2F2E41"/>
<path d="M271.137 234.275C270.709 235.345 270.138 236.307 269.425 237.163C268.747 238.054 267.963 238.821 267.071 239.462C266.18 240.104 265.235 240.621 264.236 241.013C263.238 241.441 262.221 241.726 261.187 241.869C260.902 241.94 260.563 241.976 260.171 241.976C259.814 241.976 259.279 241.976 258.566 241.976L0 241.869L258.031 239.141L258.245 238.874H258.994C259.422 238.874 259.886 238.821 260.385 238.714C260.884 238.642 261.366 238.482 261.829 238.232C262.863 237.733 263.808 237.02 264.664 236.093C265.556 235.166 266.162 234.275 266.483 233.42L267.981 229.409L263.701 219.623C263.523 219.231 263.238 218.536 262.845 217.537C262.453 216.539 262.007 215.452 261.508 214.275C261.009 213.063 260.474 211.869 259.903 210.693C259.368 209.516 258.869 208.536 258.406 207.751C258.049 207.181 257.639 206.735 257.175 206.415C256.747 206.094 256.159 205.898 255.41 205.826L255.089 205.559V203.741L255.303 203.527C255.909 203.598 256.551 203.669 257.229 203.741C257.906 203.812 258.53 203.848 259.101 203.848H263.327C263.862 203.848 264.504 203.812 265.253 203.741C266.037 203.669 266.75 203.598 267.392 203.527L267.606 203.741V205.452L267.392 205.666C266.715 205.737 266.126 205.951 265.627 206.308C265.163 206.628 264.932 207.11 264.932 207.751C264.932 208.179 265.074 208.892 265.36 209.89C265.681 210.853 266.037 211.887 266.429 212.992C266.857 214.097 267.25 215.131 267.606 216.094C267.999 217.02 268.248 217.644 268.355 217.965L270.655 224.436L273.33 217.965C273.579 217.395 273.883 216.682 274.239 215.826C274.596 214.935 274.935 214.008 275.256 213.045C275.612 212.083 275.915 211.138 276.165 210.211C276.415 209.284 276.539 208.464 276.539 207.751C276.539 206.967 276.272 206.45 275.737 206.201C275.202 205.915 274.632 205.737 274.025 205.666L273.811 205.452V203.741L274.025 203.527C274.703 203.669 275.345 203.759 275.951 203.794C276.557 203.83 277.128 203.848 277.663 203.848H281.996C282.602 203.848 283.19 203.812 283.761 203.741C284.367 203.669 285.009 203.598 285.686 203.527L285.9 203.741V205.559L285.579 205.826C284.973 205.898 284.438 206.076 283.975 206.361C283.547 206.646 283.137 207.11 282.744 207.751C282.209 208.607 281.603 209.712 280.926 211.067C280.284 212.386 279.642 213.723 279 215.078C278.394 216.432 277.841 217.662 277.342 218.767C276.843 219.872 276.522 220.639 276.379 221.067L271.137 234.275Z" fill="#EBF228"/>
</svg>
