<svg width="418" height="188" viewBox="0 0 418 188" fill="none" xmlns="http://www.w3.org/2000/svg">
<path d="M185.83 101.782C200.576 96.0635 211.076 87.6711 209.283 83.037C207.49 78.403 194.082 79.2821 179.336 85.0007C164.59 90.7192 154.089 99.1116 155.883 103.746C157.676 108.38 171.084 107.501 185.83 101.782Z" fill="#2F2E41"/>
<path d="M125.224 158.557C156.852 158.557 182.491 132.891 182.491 101.231C182.491 69.5701 156.852 43.9041 125.224 43.9041C93.5959 43.9041 67.9564 69.5701 67.9564 101.231C67.9564 132.891 93.5959 158.557 125.224 158.557Z" fill="#2F2E41"/>
<path d="M116.525 146.221H99.1273V177.425H116.525V146.221Z" fill="#2F2E41"/>
<path d="M151.32 146.221H133.923V177.425H151.32V146.221Z" fill="#2F2E41"/>
<path d="M113.625 183.23C121.632 183.23 128.123 180.793 128.123 177.787C128.123 174.782 121.632 172.345 113.625 172.345C105.618 172.345 99.1273 174.782 99.1273 177.787C99.1273 180.793 105.618 183.23 113.625 183.23Z" fill="#2F2E41"/>
<path d="M148.421 182.504C156.428 182.504 162.919 180.068 162.919 177.062C162.919 174.056 156.428 171.619 148.421 171.619C140.414 171.619 133.923 174.056 133.923 177.062C133.923 180.068 140.414 182.504 148.421 182.504Z" fill="#2F2E41"/>
<path d="M126.674 106.31C137.483 106.31 146.246 97.5384 146.246 86.7177C146.246 75.8969 137.483 67.125 126.674 67.125C115.864 67.125 107.101 75.8969 107.101 86.7177C107.101 97.5384 115.864 106.31 126.674 106.31Z" fill="white"/>
<path d="M126.674 93.2486C130.277 93.2486 133.198 90.3246 133.198 86.7177C133.198 83.1107 130.277 80.1868 126.674 80.1868C123.07 80.1868 120.15 83.1107 120.15 86.7177C120.15 90.3246 123.07 93.2486 126.674 93.2486Z" fill="#3F3D56"/>
<path d="M69.6725 47.9187C65.0485 27.1885 79.8298 6.24148 102.688 1.13226C125.545 -3.97696 147.824 8.68636 152.448 29.4166C157.072 50.1467 141.923 57.7924 119.066 62.9016C96.2077 68.0108 74.2966 68.6489 69.6725 47.9187Z" fill="#217BF4"/>
<path d="M74.1606 114.672C85.3427 103.478 91.5619 91.5548 88.0515 88.0408C84.5411 84.5267 72.6304 90.7523 61.4482 101.946C50.266 113.14 44.0469 125.063 47.5573 128.577C51.0677 132.091 62.9784 125.865 74.1606 114.672Z" fill="#2F2E41"/>
<path d="M97.0943 121.912C97.0943 127.523 111.526 138.602 127.54 138.602C143.554 138.602 158.569 122.806 158.569 117.195C158.569 111.585 143.554 118.284 127.54 118.284C111.526 118.284 97.0943 116.301 97.0943 121.912Z" fill="white"/>
<path d="M256.991 103.746C258.784 99.1116 248.284 90.7192 233.538 85.0007C218.791 79.2821 205.384 78.403 203.59 83.037C201.797 87.6711 212.297 96.0635 227.043 101.782C241.789 107.501 255.197 108.38 256.991 103.746Z" fill="#2F2E41"/>
<path d="M287.649 158.557C319.277 158.557 344.917 132.891 344.917 101.231C344.917 69.5701 319.277 43.9041 287.649 43.9041C256.021 43.9041 230.382 69.5701 230.382 101.231C230.382 132.891 256.021 158.557 287.649 158.557Z" fill="#2F2E41"/>
<path d="M296.348 177.425H313.746V146.221H296.348V177.425Z" fill="#2F2E41"/>
<path d="M261.553 177.425H278.951V146.221H261.553V177.425Z" fill="#2F2E41"/>
<path d="M299.248 183.23C307.255 183.23 313.746 180.793 313.746 177.787C313.746 174.782 307.255 172.345 299.248 172.345C291.241 172.345 284.75 174.782 284.75 177.787C284.75 180.793 291.241 183.23 299.248 183.23Z" fill="#2F2E41"/>
<path d="M264.452 182.504C272.46 182.504 278.951 180.068 278.951 177.062C278.951 174.056 272.46 171.619 264.452 171.619C256.445 171.619 249.954 174.056 249.954 177.062C249.954 180.068 256.445 182.504 264.452 182.504Z" fill="#2F2E41"/>
<path d="M286.2 106.31C297.009 106.31 305.772 97.5384 305.772 86.7177C305.772 75.8969 297.009 67.125 286.2 67.125C275.39 67.125 266.627 75.8969 266.627 86.7177C266.627 97.5384 275.39 106.31 286.2 106.31Z" fill="white"/>
<path d="M286.2 93.2486C289.803 93.2486 292.724 90.3246 292.724 86.7177C292.724 83.1107 289.803 80.1868 286.2 80.1868C282.596 80.1868 279.675 83.1107 279.675 86.7177C279.675 90.3246 282.596 93.2486 286.2 93.2486Z" fill="#3F3D56"/>
<path d="M343.201 47.9187C347.825 27.1885 333.043 6.24148 310.186 1.13226C287.328 -3.97696 265.049 8.68636 260.425 29.4166C255.801 50.1467 270.95 57.7924 293.808 62.9016C316.666 68.0108 338.577 68.6489 343.201 47.9187Z" fill="#FB1B8A"/>
<path d="M365.316 128.577C368.826 125.063 362.607 113.14 351.425 101.946C340.243 90.7524 328.332 84.5268 324.822 88.0408C321.311 91.5549 327.531 103.478 338.713 114.672C349.895 125.865 361.806 132.091 365.316 128.577Z" fill="#2F2E41"/>
<path d="M315.779 121.912C315.779 127.523 301.347 138.602 285.333 138.602C269.319 138.602 254.304 122.806 254.304 117.195C254.304 111.585 269.319 118.284 285.333 118.284C301.347 118.284 315.779 116.301 315.779 121.912Z" fill="white"/>
<path d="M417.624 185.23H0V187.623H417.624V185.23Z" fill="#CCCCCC" fill-opacity="0.5"/>
</svg>
